<mxfile host="app.diagrams.net" modified="2024-05-17T08:25:36.687Z" agent="Mozilla/5.0 (Windows NT 10.0; Win64; x64) AppleWebKit/537.36 (KHTML, like Gecko) Chrome/124.0.0.0 Safari/537.36" version="24.4.3" etag="eoykt7PpQMrMFZ8kKv_K" type="device">
  <diagram id="Re8kmmO9pRPx4H6dsRcV" name="Page-1">
    <mxGraphModel dx="1395" dy="615" grid="1" gridSize="10" guides="1" tooltips="1" connect="1" arrows="1" fold="1" page="1" pageScale="1" pageWidth="850" pageHeight="1100" math="0" shadow="0">
      <root>
        <mxCell id="0" />
        <mxCell id="1" parent="0" />
        <mxCell id="8PzJGK3AlFGfxufAia_o-2" value="STOP" style="ellipse;whiteSpace=wrap;html=1;" vertex="1" parent="1">
          <mxGeometry x="365" y="780" width="120" height="80" as="geometry" />
        </mxCell>
        <mxCell id="8PzJGK3AlFGfxufAia_o-3" value="ResNet:&lt;br&gt;&lt;div&gt;&lt;img height=&quot;49&quot; width=&quot;272&quot; src=&quot;data:image/png;base64,iVBORw0KGgoAAAANSUhEUgAAARAAAAAxCAYAAAASjfYyAAAAAXNSR0IArs4c6QAAAARnQU1BAACxjwv8YQUAAAAJcEhZcwAADsMAAA7DAcdvqGQAABZMSURBVHhe7Z0JXE35+8c/txIlQ+PH5DeWcimhqOiWotD8ZWYwmsq+72ksCYmRihmNfUkYu0FakIjIkq1FWuwkRpmRlEjbvd17vv9z7z2yVLd7b7csv/N+vc7LPcs99/R8n+c5z/d5vt8vDqEBCwsLixKoMf+ysLCwKAzrQFhYWJSGdSAsLCxKwzoQFhYWpWEdCAsLi9KwDoSFhUVpWAfCwsKiNKwDYWFhURrWgbCwsCgN60BYWFiUhnUgLCqmAPfPXGI+s3zpsA6ERWWUpEfAf9x0bMtswBz5+AiuboffhtN4VMIcYFEpMibTCXEvPAC7Lr9AWWWXcNTQwNgZ8yZZ4Svxvughjq3cgtjsMrx/NQeapiPgM84c9ZkjLLVESQr2/XYAqUVCKD5FkgNtizFYNNIUmswR+RHin9MBmO2fhh4r/8QMy8YV30zCuzgUsBNxebR+VKpODdDBxQsTrCTaRKtTJFZvPo9nZR9czNGEyQhfjLGQV5uKcP+gD7z2CjBoqT9Gda3k2T5DhHfDsWLHFbyg5VNRnBxwGhjD2WsieI3F+yI8OroSW88/o21ZckE5HE0TDPMbB3MljbPa2bj8nFRErJgHv9B0lDLH6ncchRVrZsPBSPd9ZaOKkHn6N0xy248MEb2v3RaO070xZ2xvGDRkg526QYiX6ScQMGU2Qh+KG4Gmnh54gwehe6tGqM8hoCghBCVFKMjLxuM715B08ymKiQZMPU8i1J0Ldem35IRCTsyvGD0rHt3WBcOvbzMZBspHTuoRrJq7BOHp5doE41GrsMrjOxjqvu+6qKJMxCwbj1/2Z9AmQKsTtz+meXtidO+2UEydRMiOXoxx3imwWLoVS/q3hAZz5rOmNAdpESvg5ROGt+I0xsjVazDzOyO8L04KRZkx+H28G4IfSKSJtv2nw2vuGNi3bai8UxU7kGopSSD+9lzCbaNPb22J/eI4Usqc+hDhoyDi0k6fGHYbRYKS8omIOc5SlxST4+4mTHvpky7jD5LcKhuCTzIPuxNbLo94n6uqVaumNG0jcTVpR+y9zpGXzLHqKE3wJX3bSp+Na9CT+F6pUpvIoyAn0qENl1iN3ESS8muiTWXk/rZhxMzYkfide167einKJSkRe8hfUTdJAXOo9iglib69iSHT1u1tfUhc1cZJtgxuT7htu5MxgUmkRuJkkM/xNLDAMNc3oS2FpylX8Zh5ub1H8Q1s8wpCmo4V5mwPwlSLJmyS5WMg+hd/Z73p9NdH51620K2yITTRynEArJp3gEnneswxOSlNQ9DCjUgmtpgysxck0bIc1LcYAZcuzOuReoqUpMeSCONDim9sxcJNadCx9sTWzdNg0aQm2qSB9mP8MK1TJvbO9UZ4VmW/qCKobJwN8oP/tkt4UYs/I6U+zIe7wLRcnCm4Vrlx4uZWL2xO04HV3G0IdLNAjcTJIOct1GEw2BlWOtI94e1IRNwQSHfeIHqCY95uWJP6X4xcuxETTRsyJ1jqGupFIpLuCaU7GsawsfmmmoYm4LTujE4KaZQQ93f6Y/sNPv7jMBTf6ynwXXUDDHK2hlSdhLhz9DBuVlCnSPw6bTXS/jsaqzZOhokq1EmjHYa5DYReXgyWLw5GbfqQukS97WD83KPcOHHs8A28L04R/jm6EO6r0tBi9Bqsm2wKVVmn3K2upvcDnPs0BUe8I8zA0eA42qe9oQBXV0/HomNC9PELwgK7pmzk8REpir+MNKZPrMG1ga1+NVkNTUu4LRsDY0USAwWx2LknBSWcr2HTz1aaSJcbNej94AL7phJtotXpKEKuvNUmvErEWjdvHBf2xZLN3ujVVHXapNNjEBxaquFV7EZsOPOSOfqZo6aH/i698bXUOJERcRBx74izIHE13L2PQejgh8CFdlChOBWx88boPcQR30q+QSE7OgRn8sWfBcjYPwcztzyCoXsg/nDV/zISVJ8tJbh2MQmvJalxNbSwsoVRhQYRIfv2beS8eQOr6UKf20yBdqPwLHIPop5SgLYZrHlKvM8a94Fr/2+lCkh3Y06FxECqThkInvML/vzbEG6BK+Gsr2Jtqm+GnlZfg0N3M6K2heHRFxKFNO4zBI5S46TFGY2w0xJpQvBgP+a6b8XfhtOxfqULVC1OhXyRFm8IBhpKn4Dkn0do5BPknPWHu+8FaDv9gQ0zzJmwlOWjIbiJy1dzaROn4TQFr1eXCmVZ6tkRLPM/jqcy628yoJ7jTPRVFNEfNdp0hHEj6WHF0ILlkEFoL1EngvzzITiWlYNz/tPgf6EhBgdsgrtFbWhTfZhadIZ4pEppcjgO32a6ep87Wjy4/mQofQmQfMSGROJJzlksm+aHiw2dsDxoBsxrQZwKORBodMRgJzNmPEcxErdNw4TZB5DH80KgnyO+UeRuomI8f5CCC9GJddYXpQpzkfeFDygSZlxCAiNQTqPusO2mJflcjuAxIvzXI8PUQbEuy7u8uoDz16SCbNCaizZK3kejoxMGmzEDEIoTsHPaWHjufwHLBZuwpH91eZv3ERU/R0ZyLE4lZlWakH2XRu240BP36oQPcDb6Hh30fwlowNjJCV3Lxbkd7mM9EPyCh/lBfuinmHGiOCcDKbGncLUa41R4VXYqJwRTHebjbIF0X6vTRGzZtwA95E3A0W+vuF2bsCckHDF3X0PdaDpCj3vCRFlllgOq4D5O7wpE0N509Nh6BPPMPnwnK4IIWWf3IPJWYSUDeJRFDboWzhje4xtmX1lEyNw6DI6/XZUk0dQN+sN9pAW0hALwiwrwIvsx7iReQlJWM4wPOQEvC+XkwL+yGP1G7sUTSg2txuxDtK+VEoPPxFDIOTgZ/eafwWvJvhY6TvoTexbYyF0hoHKuYM+m3Qg9dBr3CtTpbnQ4jnqayuyOUTl7MMbGB3FlQD3eIpw+MAEtFbGv6hDewuoBP2GrtieiQ6agjWIDa5SHykHoJAcsOCOVJrQ6YsK2fZhvI281lMLzK7sQtDsUh0/dxWt1I7gdOgYP06qlqcR/61CAU7P7YvrhXNqA6D720O2IXm4PbeasvJScmAVbt0hoD9+NmGW2TFSjYgrSERN+CFFHwhCVlguhejtMDjteQwfCxyVve4zfny3tJqgEdXAnhyLa24zZVxLaOQePt8Oi8+LoQB3fdLaBUZMyCMqEKBOW4fWT+0h/Vgw1gwnYH70IyvkPCv/uHIG+vvEoo820s8dxhM1gQmdleBUNT4dpOPKcVkO1FhiyPQbLeiusTYieaQ33SG0M3XMO/rbVaFPpGXj1nIQw+jc5jQdiQ/w6OH4QqNWIj+VAaApOeuD/ph1GrkScQ/Hnmd9hp7A4T8LDyg3HtIdh5/llsJEhTsX9riAXL15zpNUYWpmyo8NxVuFktgD3r99GIXRgbt1VPufBP4+F1t3heZLPHKgeUWk9tP95LlYfWIYBTMa/5tSD0RA/rF6/HmtVtq3Fgp/0mfvXgMJ4XEl+U34xhEvAduz4az/+OhiCg+GHEXXuL0zuoImWvf8PJkr7UAov8l6WR1/1GzRgdEE5BHkv6OiDuQOVjVPhZ6C4Ot3D9duFgI4FrN7E8LJQa4yvdKSqT4qeIPPZF5JJpe0qL5+WZrk4o3EoRvFKk+BeGu5IxGmNLtWIU7EIhMrDBf8RcNtfiOZNntGCF/ceddBr2WlsG6EnvzcSZeLPIQ4IuGEFv4u7MLy5HN/kn8OCXh4oXRKPNf3lcjlv4V/G4j6jsT+7rQoikE+XkrPz4TAxBM/o0Ei9zTjsPb0Ylu/9qUU4PNUJN8YexWIrBWVYDh/xix0wes8T2pXUA+/Xc9g7gammKAiVF4tlw6fiQGFz6D7LhFSdesE/ZieGKTCuRJS5FcP7/o6bVktxbvcIVKtOwttYO3AQNooTqOpcTAqNwnxzeXRCiNt7vLHhQr7s6JMU4tHVBDxSM0SPbq0kCduqUYNev3nwdeEy+8pCIS92KUZN2YfC5rrIyXwmye3o2C3FSTpilF+c4m7wUPT77QZ4Sy9gx8jmMttWgXbn4+7OWfDc+xK2PjuxY7oV020pRDz9dvtbESf+Mh6Jt+kAuAMPlqosSv9PI8Cty4nIlZZf0JRnUzHKED1FTj1bfPcmcakUHNTTrMfEDARCEaVcLqj0DnbP9MC+lz2xeNduTLVi4mw6ijp8+FG1idB3eRmXgDtlGjDi8eQb48BpAK1yqxbSXTzmY7WIUJB1E6kpKUiRtaXeQXYxof3IE9yu7Px7Wyru/COuZ9UM/p1d8Ji9F696+mD7HjfwysV5CBEK1apfIiH+Nso0OsCSV/14Ljmtl+6qnPgV0wPS0NptI1YMbw/9AS6w05WqkeB6BA7fkj+XXXw1Hmkl6mhlaYXWddg//KIRPsCl+CdSw+PQXUOb7qjQrVdvhZ9//QW8mvgPWmUaNWpY3m0pE8jfpSyH7qqcXOyGFWmtMTVwJYa218ePLvaQqpMA148cgvzV1WJci09FiXprdLduLedEQBGEb+7P0YYO052pnvqwWhiFuGtJSJS1JezD2PYa0OjyC8ISKzn/3paAkFmmzP2Vg8o+AZ9pAUhr44b1q4ajvf4AONvrStuIfx0Rh27JX2kqTkJCagnUW3cHT47kjVySK7y2HjPmR4DzUwA2zuoGSdlf1wHOji2kNxCmIzI0AfJVSPm4HpdE+7mvYWHVUcns/cdFUJCH3JzneK7CLb9IfgdcGaJ/LyM+nblHAzPYWldW9K+P/zSv6fwkDXzzbQum3QgKCwoUihbEEWvyuulYEMHBwD+CMKObdAyr7neu6NdC+mTC9KMIS5Cz3k4bSHwS3c//2gK8jnJqk6gQhXSEIIHTCF99VTOJfFQKk7HBbT6OcgZhedBMWEjEqYu+ro5Mt0WIBxGhSJRXnGlxuCYWZzcryCPOaiUneHgQc90C8djMG5v8+7/Tl9KG9ZCB4ErS7xT+ORGK2FeSE7IRZiD+6lNQOmbgWagy9V1X8JG4/Ef0sLSEtco2awxdd4O5vzJQeHH5Mm4xEyDqdbKBdS12DRsaGzNjPyi8yn+hQBdGgEcH5+CXwEyYeQfBt/87eTNta7gM4kqrOdQ/OBlyHsxIAZkIH8Th6lMKDc2tYC6vOpEiFBZJn5rTRB/cZrUnq1pF8BAhc9wQlGkGr83+cHwn0aHdwxUDpcZJi/Mkws7LJU1kxCXiKaWDrlYWFSPYSpApOSonBv6Tl+BKs4lYt34UDD8IfTVNnPETMw2Q5J7FoZM5tErJhnoah8QHQmh25oGn2ASKTwR16BrZwK63vUq37tyaCKMQCRdTmPVaNMC1tsW3tdg11OCao4vE6AgKnmQiT656NoXnMb6Y5nMZzSZuwJpRRh9U3zTR2XkwM6uUIO9cOKJzqtUmZMclIENIf5fHk38+Tsm/yM6X3rte+04wljNw+aQQjwb2nQK/S80wfsN6jDSqYJz42YmZQU9ycS7sJKoXZzbiEzIg1OwEnhzGSZUWVV2FoV4mYO24Sdh8zwieEQcwWTrm+ANEyNjojB9Wpkr6WJpmnjgSOh3MaPdKyQuZiD7zYtFmxlEc8jB+b/yAIHk3/IJvVlg1SQKVg5SoeIjMB6Dbf9/0wN9Hw8gFCydaVhyT8qVXYQqi4dlnGo5Iiv/fYOjOWCy1q1GioxpKEOvVB5OCswG94dgRuwyyh15QeJmwBhMnbcJ9w7kID57KDGH/AFEGNv3siNWpEm1CV89IBLvLGmOSh7AJdvCKbQP3yAjMknNorSBlOQY4b0GGqB66zI1CyPR2cuZO5KS2x4FQL5G4ehymbLoPw3lHsG9q+0plJHoQCFfHlUgTi7N+V3hEhsJNpnGGYnKvebigPwNHImajQ5WXFiElyA0z1l6sPAIpeXgcS8dMRlDKa3BamKN7lWOVOdBq+HYcgCBtN1aFZtCBalUU41pcKorV9GBh3bbiH01EEAmr2ihJdEMoYSXnmI2S61X4hSHEoyP7cDbvjddVg0gkd1lBSbRg5fS9JAFO5abgKh1RVk0JHh33x/hJgUgt4EDPnFf10HeOFhpqlWsTru9egbCMqrUJxdcQn1oMNb1usGorwzA+oPThQzwVJ27ot3S//gaqdR61TclDRPmNxdTAVLzm6MHMsk2VDpajrY1ycfKvY+8foXgoS5xJcUgtVoOehTUMZImz+Bx2Bl3AUz6tc+IIpJyyeyR03hBiZ2xQvpoVV78j6TPcg/gGxpAnQuY68ook7vQhXtOHEweTd64Vb21NSB/nScQz4Ch5WH49Az+O+PbkknZdZ5KThcwxeSk9S7wsu5JZUYqvmkVKL5Ffe7Sln82BBCTzmYOfOyKSf3kz8Rzdj3TjviN/emtv0oeM+sWbrDvxmHzYBCpDmEX+GmVC2rVpT5w2pFf6O2X3QsgCV1tiov/22doZ25NRs31IUEzW2++8TCC7Fs8jM4b1IV3fuVa8GZrYkyGT5pAVRzMq/AY/bgnp3daAdJtxgsivTkUkxrM7/dwGxGx8MHlaG0uTld0kqxzbESOnzeRvlTVAGbl3cD4ZZtORfvY38jEgJnYjiOfiTeRM1tsfepWwk/jOdScje4vb5115cklXOxcy1SOARGZUkCaJ9+lFDPXNyOyoaqTJTyK/924nuad8SxqqiLI7a8hAWtlNxgbLWGKvClgH8slRfG0lGWhIG3nf5SSlzsVaRu6u+YEYtelIJgQrsERh6UWyyJrWBe53ZHmSErokD7XiQGqZsjtk3fe0UzAeRw4+r16apZmXSfieg3IuaagSKOQmJCJdqIEOPB6aIB9Xdh1AspzlpZohdpTMRxaVoWXuBr8pJqj3MAxbj6lybpAcULlISEiHUDLgSRfIv4zdB5KrHUpQFB+F2GwOWjp5YmKNBtR9WVC5CZLihkYHS1hKxLkLwcyM68qo36oHnEa5yq7CqBY+UpNvo0xNDx1NdfEgJAgpBo7oWheV3GIm605KUFzCehLVoYUu7muw+DsNnF+9BmeZykadwE9Byu0yqOl1goluOkI3JcPAsavs0qMoE4e2HcPzVq7wWeCg0pW53oPTGB3sf8SPtu3QsPJ8/ycHPyUZdwRq0OtkCt30EGxJNkA/s+qMk6pLB6KGRjoNpStB+c1GaIMhmGSnW6sPIE7wRe5YK1lb86LYmVL/4uhv3lj75z6culVQt2/MLxVNLlxXb4En9wJ85x+UmaRTKWqNoENbJ5UdhaWzQqA1dAp6Vb1yNI0IWeHLsPmuKeZsXITeMq+tIeot8f38NVg5uy/+U4cWVhPUGulAm0MhO8ofc0K04DrFTsZC3GKE+PdMgDLT+WtAURZSb+SiSYdO0G+iYCm1JpPpWGofQRaif/NA0Atn/BEwBIZ1EFkWZaXgZq4ujDrpQ7Y6Uci/sgJTFt2E/R8b4dZN3vXj/5coQlbKDeTpdkBH/SayR4iXpGCH13okavesYwdSE8TT+e3ngu9zCSsdWQfyacJH5tlt2Hr6Kyz9fRRz7GNTgDsHf8fy6CYYRUe+Di2/sDFAHwNhHp6/aoRmTTU/IwfC8vkgnqmmIf+4jNpEkBaG3ZmdMOQHY3zOU14+VVgHwsLCojSsT2ZhYVEa1oGwsLAoDetAWFhYlIZ1ICwsLErDOhAWFhalYR0ICwuL0rAOhIWFRUmA/wfEBdQGtAxleQAAAABJRU5ErkJggg==&quot;&gt;&lt;br&gt;&lt;/div&gt;" style="rounded=1;whiteSpace=wrap;html=1;" vertex="1" parent="1">
          <mxGeometry x="70" y="400" width="180" height="20" as="geometry" />
        </mxCell>
        <mxCell id="8PzJGK3AlFGfxufAia_o-6" value="Attention LSTM:&lt;br&gt;&lt;img height=&quot;52&quot; width=&quot;204&quot; src=&quot;data:image/png;base64,iVBORw0KGgoAAAANSUhEUgAAAMwAAAA0CAYAAADG49eGAAAAAXNSR0IArs4c6QAAAARnQU1BAACxjwv8YQUAAAAJcEhZcwAADsMAAA7DAcdvqGQAABU+SURBVHhe7Z0HXBTX9sd/UsSOiR0RaWJFAV0QS2KJLZbEaGyYp7FrEp6aaOw1lsSIoi/Ghr0BiigxCIqKjWIBC6CwFAUUAWXpu7Az5z+7OyhtcZcnyvtnvn4GmcPs7L1n7jn3nDs7Z2sQBwQEBDRCh/9fQEBAAwSDERDQAsFgBAS0QDAYAQEtqMYGI4NEksv/Xl1huX/qKUgJwdlLYsj5fYH3ACtDZvJj3Ll0HiFPGV7IwWYgNVXG71SeartKlnf7V0zYbIitR2bBVJcXVheYFwjc7oJL1AyvAgLR4scDWNT3o2Leh8XLoJ3YHGCEaT99CfNanORFIPZs+AOeoUmQKTReyxjdv12M5Z+mYc+6bfB5+AoM1YBeM1uMcl6E2Z/kwdfFFft97iGreXdMXbke4zrVVJ2+CmAzIuHv4YmAiEzo1NIFSw3RaeRkjO/RElX3ru8WeYQHVq3ZgpMhKZDrdcY8Xy9816Zo8GTh4cldOJfXHzMn2qFhZacKhcFUO/Lv0dZh7aiN3Y90IZ+XVRvkJN43kQY6/0XphU/Ic74TLT+bTAz/VwXSiF00eexGup3LC4rIvUALu5mRRWtTaj/5BGXyYubpHhpnacrJLemr/4i5d+CRXqFlA76hA/GvJVWAlBL+XksTBnxNq72iKJuXZt7dSmOt7WnqwWiS8bL3BpNK4edvUHwl3ljq9yOJTE3Jqt86ulPm9VKKOTCLvv09lLJ4ibZUw5CsAI/cVsPtgRRsZhxinxWbVqsDOVfh5paMXhMGoJGeCUZvPoI1w43ezC7yKOxbth+1Rk+BbR1eVoSBFSxbqzwe5eYgqyieMzCAfg3Vr3mcvGjKz7r6N+J7z8GYKpti8xF5YA6cFtxEx5W7sGxkO9Tj/9LAdiom95Xj6u+b4JNaUeBZMflR3vgrvIDf0xB5PHx+34eQfH5fY7ixc/ceMrlh3VjUEx3LTI0GsJw4H6KgRfjlfHqF4bQ6qp3ByMVHsC0gD4aKMcI8hTi2emUAGRfc4Sezg2Pn8gOVzAu7cVhsjQGfNSmrXN0maNWyDhS2waY9Q4qya3I8OuaNB0qDYZD+/AX3U/FrAk65Z2DQZBFqK/bfOSzS/Ffhh3XX0cBpDeb1LB5SKqgFE5Nm0MkKxtVblYn9WWSG7cW/Z3sitZEeL6timETcDE4AU6Meuva0BV7G4XFMKvKKW4auOYYM+Ai+W/fjQSW6Vb0MhnkCz62hEK2cik4G3D5lIj4mWTWAPjAF949j3bLFWPTndeQgHufWLsPGk1GlEnoJAs9cQoZZF3Suz4tKoA/jVkZQ+oK0FJXBSC7i8P1uGOugMEBCzosUZHIXOC/kEC63cMJXrTSZXRhkxoXC/5QnfC7fxzNNPHPmVbiuPYWndfpg+jS7coySRU5OHtciKSSvcnhvzCDllgf+WDUfs6ZsQmCeUqjwcvBcOhtrvLjBqtjnHJ3/b9Mxymk9Lr/KwO2drvg7oeqvIvviOm5EcUo16ACjhIUY3KM/hg7ojcHOp5D0+u11YdyrJ1rHeuDwlRxepjnVyGBYPPPajItt5mBCe3O0bqEcVngq1nCVqeARfHf/iZ07NNt2nwjGCy3m5Jqdx2Pp8qFomlMAs1HL8Ov6X7BodHuU8J2yewgNz4FOsxYwKnec66EVbzCQpuJ5egHE7l4oGP4vOBp/rLwYpDCkwmfwOZKITyb3Ql3FsRXBpnFh0zcYNWMr/MIjEOy+HN+MdMbxiKLRXB4skrx2wTuR0HTQGAxqUs4wYCWIjn7Oeeva+LhxA36g6KK5aBjMXl7E1UxDmCmcGkfBg5PY634L2XWbqvqma4KB8xfiC3N9mIxeha3r5uHzKl+5YZFx/Zpq1tBJRdrHc3DowFS00SvAs/MHcSbujcHqmZqjlf4rBF26w0s0p9oYDJt6Di7ezTFzWmcY1DSDmdKzErLiY5GsiXNi8yHhvPOLFA23tCwUark+yCQ/wKO0euho07bclSM2KxGJLwl169VTDZxyqNWqJZTjkziDEQfi8E0LTBjSHMZGXPjDiRUzT9K9Y/BrMAZjLN42yLhB4rsOq2/a43fvY9i8dhXW7fTCsX/XxL6fd+KBOk/DPsNF/7uQ1mgIh77dUTrVUpJ1AzcfFAK1bWBvp88LOeQJiI6VwUQkQnNl8/Jx2+scEgxs0d3+zZnY1CCEiBugq6P1e1ply0Hw1TvI4wLehr1n4+fxndHKygzNlSO8ALL8YhdbrwmafsxFbDFRvEAL+OT/w8Kkkd+PfWnI9660b68bt+2mlaOsybK1KVnazif/arJSln1mNtlYTaBDKcXXxN4gf7KLxliYkeOCSyTlZaV5syLWjkY5TaI5hxOVK2w5p2eQNddfC4thNHnyt7TjUaHqBRUiJb+5fWjuuRx+n0ceSztHf0FbItWcQ3qFltqbk4XlODqQXF5fGEr1mE62pmYkmu1NacUOYRLdaIKVPS0KUPWQST5B063NqP2YvZRY7DjJ6Zlk02k6nXrFC9SQ4/MT9evuSL1KbN2oi0U76upQWt6LnLY/5F9ZiryL9LOI65NZD1p6JU8pkt1aS/3NuTFkPZvOSpQiFbK7tLG/BVn138ALNKdazDCZgVuwM3UIpg0wQ5MmTbitOTq1b6300pQVB7FGU0xVU4DH9x9B1roLujQqX2269RugLtfofKn6JEKnSSsY1VVk+FLcT2iJsSONlTOLfgsjNFZ0WB6BqPpfYVwbTRJlFnJONXp6pdpToyYnY8CqjWX1oMOdvkadZmjxcTl9kUfD40ggF2J1xbR/D0XjYodkhYYgQr8LRHZcPMaFbSHnQ/CKO5mFgyPvzRXIEHYzDAUdu8PBkBepoe6wTQgIuolrxbfAPzDarCcW+JWSB13Dke878q8siSz8GkLSWS4c7oPBDoqMTI6EGyFc7qKDJv1HoHeJdhA3UXD9N6jF72tOOdp6z+QEYfvmWAxcOg9fjRiOYfw2/DNrKMcl8wSxYg2ymNxzWNyvN/r00mzr7/QnIjVKjnjYdDyMSEa9TjZcXMzLSlPXAhYtdCDLzuGGjBr0WqGVMsExgM3Eb9GTT1L0jFqiqcKO9Nth7PSB+EijK2OAbr2tcPfwCYiLvWFm8D6cfuWA3lZqGqpvgTamXJjFyCAt44u4vNH9V+yPMES/pZswpW3xc8gQHhyOgvYiiOorbs6eQ1KdhsjObYZujhbQYfmksIDLpe5IYGHviGbc+bRIFSuJHI+vBeE5WwMN7HvBVmEH+WHwPBMFxrAHZn0/AA1VB6qgbGTnEPSbG/MCzfnABpOFENc1uNh+GiaWuDCctzY0RAPFAOI6FxMZ//bEv+5QbLh0DVe4xE+TLeDobHRQN/DLQ/YQDx/rooOdDTdM1VCzE3raNwYlJyBBXYP1jDmD4Tx8k8H4dpzl61xHp7ERmtXRwUf9pmJi2RsIatBB06+WYp6xF2aO/g6/uLjCZckkjFsagyFrfkBXdQ3VaYoh4wehqTQM165JeKECzgiu/QrnTWKIVhyAy3jTkosa8liEPZCgpY0dGjzywOH4jrDLjkBiXTt0a8zlY2ceKx0F8+QGgpM4I7KviZtng/G8qgME5imCguO4MaKPdnaKFT8ZItx+g+cLS4z7bRMmlsoF2awkJGfowsrOlpdwp3gWANd5s7Fk/x3lKqU6PpzBMEnwWz0JP+x7hJfhXnA7H6takuR+Jl/eiZUbvBGvFMgRdWw5Vuy+hpSqd1Vqkcc+QGReWzg4NqpAabXhOG4kTJPu4JbaUVILxsZG6DBuKvoXd3u6LWBkZIXRM4apFgU0RdcEwzacxKFVQ2FZzwAf203GVq+D+I6LhdSfRgeNP1+D7UtEeLxpFlbt9cJfXoewbfF0/OAmxbgDZ/HHvzqUXaFjZSgoZJHsswZL/Zph/PhOytmUpPfg7iFDn+Htlc5EHhuHpEIJQo8HQP9TR7QsOV6rAH20MDdFPa7DGfdPYceSGVh2wxILjhzH6kHNy+ih8FEkYvVsMGSIKS/h/OFdbxw4fR4eGzbCo/hn0ErD5zICFcJQ+rFJZDNsK701F2dSyW9+HxrpEkGapO0C5SALobWfTaUTxRP1d4aUQlf3o08XXKASp5e/opjwh3Tm58m05YH6K6eNL/vnIctCZr5iWstBSHA8uk4Yqz5/KUKnCT5bvh49wrbjuFjLj4QIqNA1Qu9vRqhuXr9j2Bd/4UiYCEsX9kOJdQDdj2Bu9BxRep9hRDv1F1l4pl8tBbi9djBmPpuLgPlpWLxOhjk758Baw4UV9mUIDuwMgrHTbAw0rYIrL6A9uZE4utEdNb9Zgq+tSl4TWbQ/jl2Xofvo4WjfgBeWg2AwFZD/+Cx2nY2DgWEr9BwzEp21/Uw4m4WYmCyYtTUumTwLvH+YZAR730WtPkNho+a2gCYIBiMgoAVCDiMgoAWCwQgIaIFgMAICWiAYjICAFggGIyCgBYLBCAhogWAwAgJa8D9gMAW4+/sI9P3BGy8/4IcvBQQUVH+DKXgAf994NOnYqfLF16oCmQTVvjCnwDun0nf631elRHnEFoya+RzO535D/7c8vff+yMOdjWOxpeF2HJxlqvb5/XcKm4EoPw94XohAlm5t6DIsGnYeiUkTesDo/Tw0L6BAYTDa8T4rJcpJ/Mc4cvoz5k01yGqA9N4W+qKtOYnm+6t9dv9dIk34m9aNHUhjV3jRoyKFS+7SttGdyXHyIYp+76Up/7loaTB5FLF/CvXsOITWXX9Vojwqcabj62xHbayn08kX5RVW0Iy8yNPkE8aPACaRDsxdSher5LmISiKLpB0jOyjLvbYduYPiqtiS8x7up2kOnWjY2uv0qpRas/92JpFZZ5rlkVrqWmhBXiR5nwl7/+Vg/0fRIit4/5US2fRbyLWdjD7VJhSTI/aIKy7nGSrDMOZJLGILVX+pCthUf6z5bj1uGDph1Y89yzznX8ukNZrqZCE4MFR9DYEKYDPD4Pb9HJxMbSx8mlpDNDeYylRKZFJw23071sybgembArnIX4U8xgPLZ63C6aJqiGoqJVJhZwwZ9ea59w8N88Qd20LtsWxqJ+WjuJQZC7GGtZ+ZzDjc8juFk2eu4IFGpSmzcG3LL/B6UgefzpwK23LqxbI5OVCU25JKMpDLryAyKbfguX01fpo+FZuvvNY4xO5L8d1KL6hUzuDp+d8w88uJ2HjpJSS3/8S2cwnKIwUqRkODqWSlRN3m6DbcHC8DApFpaMYXjyjAw5O74XkrG3Wb8qagplKibksLmL219CNPFVe+BJsM780XYTnHCe3MzVRF7DhDf3tFG25mDtyMSV/OgKtvOCKDTmDFhK8w92jkawdSHmziKew5nQhqOhBfDy6nTjN3XsnjaDxnaqB2o8aozx+g21yEoebpCAjMRANz/iGpggc4tccDt7LrQaVyXZgMno8FX5pDv/VorNi2DnOHvnm+XUA9mhnMf1EpUR4fjTiZCbqJmqtmivxbOM15MwNbR4iKnei/rpRYpZUvWaT+tRlnms3ClM4GqMkZjLEihqEsxIuT+OId5cNm+GLDypsQuXjjyNa1WLFxJ066O6Om28/YdV+dsbF4fsEfd6U10LB7PziUr3DcvHkfhdxcb2Nvi2IaR8LjWMhMRBCpSlNyKveCb7wBbB1Fb64dm4qgYDEadHNEFX7tzP8/+FymYipdKZGhpL1jqYNoIV1SVq9kKPnEVO44Kxq/R1XxsQhNKyV+CJg0P1rQZxA5uyqqcnLbruU0xlrxPS9cf+f5VbhSJvWdR/2cz1HJ2pRyitvxNY3cHMnvl0ZKgYscqE3rNuS0r+R3zxTBvPCkWVwbLO3m0JnUYkcwibRvbFtyXBCgaheTTO5TOpNlm7Hk9rTYcZLTNNvammZ6VkOFV2M0m2EqXSkxC6GhkdC3sVcWV2MlwfAPfsmdywL2jsXL32heKfH9k8nlEjuQ9vl0DDBVVOXktubWaGei8N6K2s/iCms/sww3i+hx+uP3VdSAvp4uWPWlKaGnq1Q4mrYor6yTHDHuRxCYXRd2053xefEQOSsUoRH66OJgx4XAXNgWfB6hr3SgZ+mA7i2KafxOEMJlHeDQvdopvFpT9lqUR2UrJUrDEBomQ7tu9qjPpiP4XBJqN8xGbjMRulvqcAOGP+5dVEqsosqXOTddsSV2EBbPG/W6KuewESPQ31o1kJkEMcQVrJQZiD6B1e0j8IgpUZoS+70yYP+JFS8ojT7MrUy5nwxk0rKNZJ664ze3CBj2X4Jfp7UtscIluxuCewXt0dW+Ptj0IPgm1oFhdi6acaGXhU7Rd3IWICLoNiScEXF+C0ylFP4PhZ9p3gJDaT7O1MPCgX7yzeBlChhKv7qOvujSi2YdjCgVdhAVPtxMQ6360YbbEoo47kJHw8S092sr6ursQzF+++h0pCqYkUdvoy+setPqa2IKPH2dkipzb4PJpOSYaIqO1myLSUh9+03HzCBaP6gXLbxQdLewiEIK3ziArJTFw4fS1qiKKpDJ6cnZxfTFJ8Pp+9UutG3TEvr2s770r23BJCkv1uJhUn1orr0l9Zh3nkpoPO0qbRhqQ5/OOEgRpRXOtSvi9yHUvu86ui2JoBObj1B4zB4a18aG5vrEkP8+L4pSdFoeTf8ZZkV9Vlwj8RVvupFYTOHyZApwmUdzFu7jzlFBA/+haH7jkpHQHbfvaXi/sbRyzynyOXWQXBdNofGTltPxsNI3MVXI7myggRZW1HP4bNoSkELywgja8nkb6viJE60/m/C60J3Udy51NbOmoXN20c3Sd+c+EPJEX1rzZVfOKNrT4FlbyE/MDyp5Il35cxGNd7BU3ry0aG1ODqN+pj1Xn5ergyKkibfp76O7aZebJ12OKl9fJWFIctuNnD/vR+OX7SWvs6fo0JbFNG3MJFp5NKzMTUwVMrq7vj+1bdOdvpzlQpdT5JzTcqHhlu2o34RfyCeB13j+eZrfxZxsBn9Hu2+UakuuDzlbK/plRWN2xfNCgSK0/iyZPCMO98JjkE4N0apdJ7QzqltBXCdDesIL1DAyQSN+JaZA8gxp1AgtPypWF4rNRcrTDNQ2NoZh8fhCQKFwxN+7h5hUQkOTtujY3gh1KwqkpWlISNWBkUkjfrWxAJJnqaBGxnijcha5KU8hqW2MlmUUziAj5iGeRZyAS9xEuM0vv1r+PxWhzJJAWdg0BPzqihdjVmGCheDBiiMYjEBJpNHwP3odBY6jMaxDBSUg/6EIBiMgoAWaLSsLCAgoEQxGQEALBIMRENACwWAEBDQG+D/3t6Qh3uPRMgAAAABJRU5ErkJggg==&quot;&gt;" style="rounded=1;whiteSpace=wrap;html=1;" vertex="1" parent="1">
          <mxGeometry x="150" y="470" width="10" height="30" as="geometry" />
        </mxCell>
        <mxCell id="8PzJGK3AlFGfxufAia_o-7" value="&lt;div&gt;Evaluation Metrics:&lt;br&gt;&lt;img height=&quot;192&quot; width=&quot;364&quot; src=&quot;data:image/png;base64,iVBORw0KGgoAAAANSUhEUgAAAWwAAADACAYAAAAgNlmYAAAAAXNSR0IArs4c6QAAAARnQU1BAACxjwv8YQUAAAAJcEhZcwAADsMAAA7DAcdvqGQAAFwQSURBVHhe7Z0FQFTLGsf/LCgIinIVUCwaBcGgw8JubMS8tl77KnY922sXZaHXbq+tWDSKXpVSQQFFSWGRWtjdeRtHBd1F9EoszO+9eY8z55x15sT/fPPNNzNyRAAoFAqFUuFhMf9PoVAolAoOFWwKhUKREahgUygUioxABZtCoVBkBCrYFAqFIiNQwaZQKBQZgQo2perAS0f4+b8wpd8CXMll8igUGYIKNqVKwH33CFeOe2PXdi/cfJkJPpNPocgSVLApVQIFrTboOXwKRtirQ57Jo1BkDSrYlCoFS06O+YtCkT2oYFMoFIqMQAWbQilHeO+CsH/+MPSbcRyxL69h95yB6Oy8B+Fc5gAKpRBUsCmUckReqzV0SDyqacjhwfMmcHFuBVZqBvJor2gpwQeHnYK0HB6zLVtQwaZQpJF7D0vsDaCvrfNLU/Nh3kj+JMj5EQh+TKCkpI62PZsh+2k48lpbwbg6s5/y68h6jH2Te6FTh46wb2mHYRvvIVXGPoxUsCkUadRoj8WeC9FO/ctrIqfaGlMP30dgSEiJk7//HVw65Y7l49ujiRJA0pKRxAgFL84fIUlN0HFAe9RnsRESEgdTe0vUEO+m/DI4eHTsGpRnnYbf41Dc3NoWSV6LsTOIw+yXDahgUyjFUMNkLHZ4zoWNmji6hGQ+hqfratxmq0JdQ71ESbOhNppZdsPIJftxbHM/aKQnIUnko+YjyT8ACdaD4KQtL7DoHyIo3BC2Ju8Q+YY6sX8pvDSgzXAMaaYi2FBE4+6j0Es3HW/f5In3ywhUsClVijxOPgjh/9DAmZqtJ2G3x3S0URWLNvf9DawYvxD//LCosqDZ/Q8MbZqOlGzhNhuB/jEw69weaoI3kZ/2Bu9ys/A8OB21tRREZ1DE5GdnIDPnP3zE5LXQxrzJlxh8XhY+cpvDok1NJkM2kF8hgPmbQqm08FMjcOefIzh0/D7iMrOQJ18Hysp1oVe/JC+sHJQaWsPRNBdBNx4hOV/we+wo3PNLg2G3jtCt+QOx3aw6UBdY64oNDNFQWRnGfSegbwsVwb8gdLeYoIuzE7pa6UK1DEyp/MRgXA7Jg57ObxXacuPGHsXUHs5YeioJzfo4QldZ2vXmIz05FSwVFXzvc5d5zx1HiQvmDdSBEpMnC1TNJcLy4xF49iJ8HsXjo6D6cgp10NS2L1x6m6J2ZWxzZEfhxomLuHH3IeIFlp1ah3nYNl2Kn5SfiuurZ2L/Ew5QoyHaOA7A/LHthTvAfnoK2/76G4+ylKAoeGdqNm2DlsqRSLRyw7p+PIRf+hsnL95HVJrAEpKvDpVaKqgmfLcID/k52cjJ50PRdia85joIGqWyCB/JPivw+7TDeC6ai0QONVtMwG7v+bCvK0sPDh9pge7Y7KOF8XOdoFuRFSsvAu5jpsHfaib6ZRyAV/II7Ns9CI2kDFfNfHYaXpdy0HHKCLSpI/me8DMC4LYzBh3njoSxrHUWCAW7apJCjowwIHo61mTmxSTCY3IrLwXk6cauxKipNtE3m0DOJEmuMffFHjLYUIfoNdUjjiuDSB6Tz0s8S6ZamJKhu8JJjiiHQ97eWk+GtDIkg91jCVeUR0j6qQnErKkOsZx9nTmOgfeRvDw1g3SZdLZovszBJQmXXUlnQ23BNRImHdJm0HbyMIPZLQPkhXuQMUPXk4fZTEaFJY+E751PVp6LZp5DNnl6cAFZeTru8/MmibwXB8nU0ZvJAzaTUZjc5+Si23HyWNI+GaAy2pMlI/8N3rzng6XVBUO7alQBZz4L6vXqob6WJljsezh07Dm+9QhyEHr8BhQtTQRNSjn8pq7+uWmZ5XsV99MbwLKtIWOZV0fDTvOwdWkXsFKT8SmqtYZ6PdRiCZr8NZSLXlNWTeg7TcJIqzqQ7SadPLR6rsHe9X3RpJpwm4D9YDumTt+HiBzRARUbbiT2LzkApUFj0VqZyauwKMJ43Hosc9JjWmSqMB29DssGFvJFS0DRYARmWQZi4arrSCvcWZEfi+sHA/CbUx8YVctFbmYiQs9cwlMZChSpsoLNiw9ESCwfdSzbwkw22+c/jpwCdAe4wKZmPiJOeMMvi8ln4KffwNHHreDSsbbYpyr35fHg83gg3Fe4fsq/0EvAglav0ehaX7CPyYFArCXDQVKyJoaP7YgKrxPfRQFN+2+E56quaCD6ovGRdn89Js0+jugK/vKzb3ricLQpunRWr8Qvvzx0e3WG2uVtOPhJjfmJuL5kHGavX4nRNiYwbW4MUzMHzI/UhJEMvf9VVLCF4VT+iOLVhLmDFYSBPsXCz0D4pYPwPnoax92WY66rOwKTC4+U4uHdra2Y77oWu3ZuwErXOVh/7u1nqxO8BPhsmYcFa3Zg94blWDh7Hc6/KZ+RVnIafTG6ZwPg3RV4n08QXIlP8BB/+jTSurigTfVvRVfVoQvs6vDw6vAUOE/zQkgyY58rWmLsOJvv+6SzfOHm7i+Q7cqCIvSdt8FzSQeoi8w9Lt5fX4ZJCy6i4kbkZeDehdtI12kJs1pMlohcvPY7im2uE+AyeAEuJDJPBdsHa5xHYMPttELPSdmQ+8oPx7fMx6ShQ7DofCLz72fi9ipnjFp3p6jlLAH5Rm1hpx2DU973ILJLWPXRbaMPImJfI/pzisatJZYy1Z9SNTsdkY6zE9th/j0zLLt3GCPrF/PdyvwX++fMxw3DFXCbaws1VjrOTeqANfyleOg1SHxMrg8WdJiH/BX+2NKDhYhtv2O//l5s6i22JXN9XNF5bj6WBWxDN1YEdozZC719W9CrGFMzP0ogqLfjvoh+schBrXV/DLXVZLYlwUfiwd+xmLUJbpZHMKTfdkTpTMHJf1xhJhxVx3mEDSMOoJnbNthfHYO2S4NguuAmjk3WZpqfAisyYAdmzdot+FhxIV/HBH1nrcCCkRaoW6h9yvFdjE6jjyGreQ8MsNYUWwR8DlKe3cb9evMR4OFUzKCQfDy/chB3Ykv4MWOpoVX/IbDRLE+7IxtP3CZgwl+B+CASESUYDN+Bg6u6oFyLJQnOPSxpPxbnzP7CA88B37R0OC+9MK7/ZnBnXMORiYL7LmhRnf9zIrw0NuDcYnOU+eBLTjT2jumPrdwZuHx8ArTluXh9bi4me6hj7cXFMC+2QNm4ONkKcx/3gde99WgvS6EgxVA1LezsEPg/zIZ8c3vYFRrF9g28NzjrOhk72AOwao5QrIWZyqivqYqsfx+IDhFRkIWPOZl4fDdIYMMowqjvNAw0/fLd5n78iOzMR7gXmCEwzIzQZ/ogtPjOZ53kpCM5MRFJJUrJSM0sYM78PgpGLhjZXhW8F6fh7cMW5bFvH8Uj0+HoWk+aS4OFunazcPDKCawYYgbVj+E4t8IFThP34Ukmc0ghlBpbo3vPHujWrSs6d+mMjnYG+E3aT3+GIEc4qERiHSWkpBRk5pe3vaGCllPcsGe6OcRh2nmIC7qPyPSytkm/Dz/zDd6kEajUrCnRB6xoMBTDOirj6c2bSBB+MxV00WNIb3SyMhKLtaCVtGn8orJrHSrqY8jwDlB+ehO3xAWCTs/B6NnZCkbiAsFv4wQsOfdGgmGjAHV1NSDtJZ4nlVF5ywJR12MVI893MXHQ0SfdN/xLCpg8SXy4MovY6dmQBbc+MjlCPpCTvzcnhh3+x2wLYRP/pR2JkZ4DmX895duIE7YfWdFBnxjZzyM3UsorHoVH3h8YRcZ6J4vKl+O/jHTU1SYthu4lrzlviPfYUcTzpbDvnUdSDo0gzZrqk8Fur6X0xheQRP9dZJytgSiaxGHOdfKBqVbe/UXEXkeXOCzy/RxhIoLzL3Hf+VXkSBkgjuQoWfpPpPuQhfZ6gns8jZx5XdxTVX5w4zzIED0dYjvvdtF7U4iMsxNJK6MR5O9E4Q39SHzdPEnwp5uWF05Obz5Agj/dbAkUPN1BhtvbEgeb7yfHeZfIdwNVMs6SyabNyKhDiaLn9uN9N+IV9LlAJOLkFnIw6MO37xzhkMdrOxFD3U5k/SMOkyf7VEELOx+RfsFIhiasHJp9joL4DJ+NdwlCkzEdd877ILVeB3S3LzS4IjMA/o8L0LBdFyZDiCrs5izDoEaJOPe/v3BXYEgXQdUeM5cNQcPEs1i98Y7ACi9/aliPgnMrReQ+OALvY4dxQ2UABuhK6XvnxcHv3stCUSUK0LT7A3u8XWFTi4/318/D73trJFZviUnTulbOOTKyn8LrD1ecLeiAJfs2YYD294ZtlA/ytVShIrjFuXnSb1Yta1uYkDA8fJQHXvx1RKh3g/mnm6ZojIFzxsBK3NSUiILpdPztFwDfwO8nn429vt8BXcsaNiYE4Q8fIY8Xjxvh6uhq8blAaD54NkZbq0l0FfCF3l45JSgpVR6Zq3qCLRAf/4BY8NWsYN/ya78EH+l3tsHNV/BAc98hLj4X8oamaPHZ/8XHu4sncU+hI6ZOsBTlsB8GISxf8EeddvhzUT9ovL+MU3c++QjYCA18JvhECHa3n4sFThpIvHwSdyW4EL4m+/J8dHFoiw4lSh0xak8Ec6Z0eFyeKNpDhLwOBo/pgt/4r3FsrQ+MXLrjy9iPr90MXEQcdcO1lKLN/Oq6HWArFHnhUO8SeiZyH27EvD0vJIQUCsnGFddOEuonJXUYAffvTBz9pYPp++mnyHuBY7MmYnOkIeZ4bseIihxyoKIHvQYscD5mSe38ZWlYoo1ODmIin+HuFTba9BCH0OXE+cJ9phP6L/dBmUYvsjRgYa6DnOgohN25ArZ5DzQRFwh+e2ZhQN8VuC2xQAQfM7NBqtVHI3EoT6Wgygk27919+D/nQqFZa7QuYu7xkBrkgblrYtGsg7roQamvoQA5efnP/j5+0hVsOvgB/TeswQDRUCsu4u7uxz+PhY8/C2r2dmihqAgVZVGArmB3LO4duIh/RbvVYGfXAoqKKvi0uzhqtJ0J9wP74VWi5IVVg/WYM6XBRXJKKpKTEhmxFJS36+8YoKcAedPBGG75SWgIsrJyRJKdmyP+f+E8DI2q38H6RcfwopBxxk99grB4AnXHXrBnTCV+djZyBSfx+d/6DXNjzmPl4rtQs9T+tmUjogbazvKUUD8pyWsNBgnKX25w43DedTxWBWthkpsbxrf8brxR+VK9Beyt6oEkxCJW2ndOQR9mJqqIveqJKMN+aMPcV+XGOlBMikXd5i3LeCi3AvRbmqDW66vwEnwU+5p/LhB0FBMRV7cZWkoqED8TCQnpkDdqg1ZFImKkw3vng+2zp2DRgVCwK14XhBjGNVIlYIf/QzaPtiWGQp+loTXpN3IimTp5Epk8bhQZ0sWKtNDRJiYu3iSBcYixg7eR4e2cyNKTviTg6iHy18KV5HBoYX9ZDrk6x57YD1xKTt0PIJc3TSDOc0+TV59cZjlXyFw7GzJkyUni63+JbBk/hLiejiFl7lFjh5PLexaSQa11iH7rAWTxnmvkucgNyCXx3tPI/POp4jpxY4mv90Yysa3QN61NjGxHkXX77wp2FJBnf/UnXfo7k2HOU8nyzXuIx9blZGJna9Jloht5IPJpskn4P7vJ/D5mRF9wroFpRzJk5O9kwrjxZOLvo8jwvh2JhYE20bf4k9yS7aGOYrgJ5LprJ2Js3IOsuiPuF5AF8kLXk+7Nh5C98dLGCnJJnMcQ0nbqefK+cKXST5PJrYs7r/QQ+t6d7f4gF4oWiJyZ0IY4e8ZL7mfJvU8W2xiToR4xxY6KLEz2P9NIK6E2GAwinq/Lvp4loQoPTS8hnA8kNiKcRL9nS+igLCCpSamEy80mSdFRJDopu+iLW5BCklO5hJudRGKioklStqy81t+Sl/iGJAkvAC+LJEQ8IIH+D0jk+6/qW1XgpZB7/+tJzAwdyYIrCSUWhAoBL5lcn9OB9N8SLqXDPYPc3b6ZXPtq6oLsG38Su55bSEQ59Kdm3N5Otlz5avqI7BtkrlUvsjVccoHygleSzvau5NaPTBnA/UBe/htGLswfQ7Y+K4eKloCq58P+UaqroWlzY+jVV5XQjFdAXY26kJdXhoaeEfQ0vhqOrVAP6nXlIa+sAV0jPWgoy+7lVtRsBA3hBWCpQKu5BWzsLNCs/lf1rQrw2XiwbRJmHs5Eh3X7saqHlsQQubKHA05J1hVjqaPz0rWwe7wTx6KFvSuF4eGdz2kk2I5DN43CdzYfkSH/QtnKGjVex0I0M2wZIXRTnEmwxdgeRaePyI8MwVMVK1grxyL26wLxk3D50GNYLpuHjrWZvJIgrwZdrfeIVOiMvs0qpt+7yr1vFMrPk41nXlPxx54EWC7di40DmkrxxX8PHl4fW47dwZ+6/oqLJ/4eHCQEHMCSod0w63wJerMFsOrYYs7WMSg4sQc3YjnI8tuEsaPnY5uHB26gK4ZYfq1yBKnJGVDIiEIMX+P7I4P/K1l+2DJ6NBZu8YDnNaCLsyW+KVFyMtIVMhAVzYNGkQJlI+LILjxruwHLu9b7IYHjvLgB739y0dd1OHQrpl5X1ZGOFMqPwsGLw9Pw+8pH0Jm7Hx6TW/68cGUGYOXAv/DbrlOYbiRUBg4iT+1BSJMxGCklRE0qOUlIyIjF4VG/48W4AOwfVofZUQL4mXj5MhMNEYQtB6KhP2gchlhInmOEn81GVrXaUC2L4Y75z3F2/UG81B+Isc4WkDi2jZ8N9sdqqF27cIEELYTA83ik1AE9W9etlNYoFWwK5btwEXd2NkYvuAf1SXuxd7bVT8+bzkkKwqElc7H1sQ12CCzbzr8i5IL3Aruc+uORi/+PCTZF5qCCTancsCNx49x1PAiPQrz6UGyaa47Xp7bB7fS/IB0WYvMflt+xlAVW29VFGDPrJOLqWGNAX7NvmuffhZ+P7MxUJMREIiz8FT5wgGo2S+FzdCy08uLgd3Artlyrg2nHV8DxuyNJJEAFu8pABZtSyeEjJ2oXRvZ2g8qyC5iGywirbwfy91j8lTYB5y/MgvT+JT5S767G71MPIPKXjhZhofHoI7i2UjjLIR8J+1zQ188JN/Y5oy4rH4/3TMMGnw+CPdJQgOHIbVjtVF+8SQW7ykAFm1Lp4dyeD8epr9F3oSOamI7AsFYZ2OfcCR4Nd+Du1m7Sh0fn+WG98zLczPjFr4hcdVj9eRLregtt9QycndgJpyzP4+8JjX8u4oQKdpWBCjalkpOPR2t7YMQlNQyasQZLnI1QPeMsprRdDv6yu/AYXJc5rpzIuYl5Hbej4YHzmGUsNPX5yHr7AnHpBeJRphJhQbm+PnTVmdGpVLCrDJWxI5VC+QIvHoFB8eDXssQAJ/E0obmPgvAk3wS2tmriY8qRb+OJ+XgXfBbH/j6Co1LTUdwI/yg6X4TA5qJmV9WAWtiUSg3/3UGM6rgRrMU3cXBUQ4GFko/QNd0xMsgJ589Ngz6LBcF/yw3O1Zlou1UeU1wnYWhnox9fPo2TiGe3D2PdfE8kOa7A/6Z2h71hObcaKKUGFWxKpSbjzER0WMqB650DcBEuAcOLwZ4BPXHGwht7bZ8jvPEw9BbPhl8+SIwnplAkQ10ilEpMNkL8HoHbsgPafxp9wWMjM0u4aO5+nOd3QY/yFGshLBUq1pQSQy1sSpWDk5aAdAVN1K9dQccfUyhSoIJNoVAoMgJ1iVAoFIqMQAWbQqFQZAQq2BQKhSIjUMGmFAMP+fk/PkMzhUIpHWinI0Uq/KS/YWi9lNmiUErOT69CTykWKtgUqeTemI8/In/H/pnNmBwKhVKeUJcIRQpcvA5LhJapDrNNoVDKGyrYFCmw8eyFIoxbVGO2KRRKeUMFmyIZThgi8oxg+puER4SXjvDzf2FKvwW4ksvkUSiUUocKNkUivPgwvNUwhf5Xo7e57x7hynFv7NruhZsvM4tZFYVCofxqqGBTJJL9LAoKxi3ATJH/GQWtNug5fApG2Kv/3OooFArlp6GCTZEABxHhWdAzrSf1AWHJyTF/USiUsoIKNuVbeEkIi60Dk2Z02k8KpSJBBZvyLXlPEQVjmCox2xSKFPgcNlLTckDHw5YNVLAp35AfFY4MHVPUlyUnNe8dgvcuwIheM3AiNhrXd/6JIR2d4RbGZQ6g/Fqy8NhrMvq074hO1q3QdshG3EuhXdClDRVsylfw8SE8BiomxqIFa2UGeS200uUjrroG5IKj0HjEULRkpYHNoSJSGnBCj+O68iycDHqEkDtbYJ+4F8t2BIHD7KeUDlSwKV/BwbMwPpqbqjDbv4Dce1hibwB9bZ1fmpoP80byZz3OR0TQv4BSDai374lmWc8QkdcKlsbUD//r4SENbeDi3AzCp0SxcXeM6qOL9LdvkCc+gFJKUMGmFIX7CuGpDWHa+Bf6Q2q0x2LPhWj3aV1FAXKqrTH18H0EhoSUOPn738GlU+5YPr49migBJC0ZSZ8EmxeHgOBENHbsj3b1WWAHByPO1B4WNZj9lF+IPLTM26DJ50eEh6zMAjSzaIOaTA6ldKCCTSkCP+MZopVawPjrAOyvyOPkgxB+iQfO1DAZix2ec2GjJg4HJJmP4em6GrfZqlDXUC9R0myojWaW3TByyX4c29wPGulJSGJc1PxEfwQm2GBgf22BnOQiNCgCBnYt8D7iDUrfi83By4unEZDBbFYGuFG4fCIIaSW5wWw/XHndFn8MN6Cx+aUMFWxKEQrCwlHQzBS1mO2v4adG4PaJnfC+lwY+5wkuuJ/GzSdJzN7iqdl6EnZ7TEcbVbFoc9/fwIrxC/HPmx+VVBY0u/+BoU3TkZItzmEHBOCVWSe0Fw6l56fhTUIusp8HI72OFkp3qV0e3l1cDc8kY5jXYbIqNPnIzshEzvcuuYIhLGtfxzr3J8hhsiTCz0DgoQAYLZyP9jJRfxlHOL0qhSKGS17sHE8W++Qx26UBj6T6riX9THSIXlNtUTLpvIjcTOQx+0sKl7y6cZ4Ep0o+j8Nmk+wf/cmfoODlATJpzB4SxWEyKjQF5PWRscRSR584ut4gUi7dF3gp5Oo8F/I/XzaT8TV55Pl5N3LikbT9lF+NzM2HzXsbhFOnr+HJu2xBc1wO8tUUIU8UoKZtApvOPWCn+3VnGQ+JDy/gwvUQvM7gQ6nVCCwabiYhAiILoQc34lR4HuRqNoH9oJHoaVK7UBOEh7TQY9i99x7eV1NFbUUl1GnSCERgHXZcNR02n10IfKQ+uYwL14LwMjUfEi+unDraTv0TvbUrWgOSjXPTFyBv6W4M0yjNxhcfyT4r8Pu0w3gumjxKDjVbTMBu7/mwrytDjT5+Is5MHYeHg49hXSdVJrPiwgl3w9hpfrCc6QT2AQ8kjzyIHYMaFevG4L10w+h5OZh34k+0LOImy0fs1f24V8sJg81rC+5gAdjhNxFarTd6FT2Q8isRybaMUfB8O+mnp02Mum8kTwXGYEHqv8R7oi0xMupMlvt8ENhwX8Mjyd7DSXOBNdfM5RBJlmBZsH2Xky76AotPpy1Zcv8jk/uF7AfrSW/jtmTulfcCO0UAN5Hcmu9IWgzZS95K+L08H1dio61DWo09Qt7k8giPV0Dy2EkkOvAgmeY4lhxLKQPz70fJCySrx28mT0UVLG24JOGyK+lsKLay9ZrqkDaDtpOHGcxuGYDzeAPp7biSBJdmg+RXkRtO9rsuJ+ejmcKynxDv+cvJmTiueFsavARyeIQ9mX4+tdB7xSPvrxS+d+Jk2GEVeSAL10KGkUkfdkFcPN7z5KHToQuaCz7mCnVbwuWPAdDlRuPUoetIZ477Qi4eP0lErToskJREJH7dkcK+h207AsCvIQdW/bbobvV1XzcHwSfP4IWSFbp3rC/2icprov3v/dHRrAUKBT8w8JEWHw82UULrzl2gpcQCi6UARVUN6NkMQbdeLWEiKEtFg5f0DG/VWnwzQ1/pIA+tnmuwd31fNBFNuU3AfrAdU6fvQ0SxTtOKAgehZy4j3bztV5ZnBUXJGL9vWIF+ekxhVc0wav0KDPgS6iEZliYc7OvD79x1pH5+b1io32MDbj5/LVoK7FN6fmcJLKhxXarIoGDn45n/A2TINYBN2+afO5T4eTngEGHjWvA/Xwty3iMEJNqgp5kCeKkCwS7c4cLPwN1N7mA72EBJIBR1LNui1TcPHR/ZWTngfXyBiNf5TJ7gQ9HQAk4dm0twr2QiKCAM+dXN4ODwG3OR+cjNFQ4rqAHHieNgXCai+GPkPY2CnMm3M/SVHgpo2n8jPFd1RQPR9RB86O6vx6TZxxFd0Udg5D+Bz/0k6LQwQeVe4kEeDUyMoBJ6B75sJotSbsieYHNfwi/4Hfh1reHwSVn5ybh78ibeyjVBH5cuUPuqVvnh/ohu2g72WmqQ+5iEpMxPii4QiNsb4ZU7HCOVovCKq4zWDtaiwQBFUYRll3aoV/AMXnM3IeBTrFNNGzjaSfBdZocgIDQbCoa2cGggtmD4yVew/0S0KMRMuaZKBQx/ysfz8CyBAEmfoa90UIS+8zZ4LukAddFF4eL99WWYtOAifjh4pAzhvXuEp+9rQath4X4OAbmv4H90KxaOd4bz/POfW3OZPqswfPh63C1RnNyvJBev/Y5im+sEuAxegAufCsT2wRrnEdhwO+0b++ZrFLQaQZPzDI+e0HGM5Y3MCTbvrS+CorlgqWTh2d+ecNuyEjOHuGBznDXm7DuKlV2/FhwuXvs+hbqNJZo0UAeLpCCJeWj5qbew2asAI12t8TwwHPmKprCzqy3aVxQWNPutxLoRBuCF78UfE7YiOEP6Y8554ocH6QJbWikVd/ftwc6NyzB97F5kGBuUOMQsP+oKvPa4wb1EyR0nAksWWicV/geEva4F43KZoa8Gmo/ZBfe5thAvcFOAuHPzMXH5zS8DYyoY3JhXiOeroGbNr6aZraELe5epGGclh6jzR3EpXjwtkrJOC2gm3UNgbFl/hWpAx8EFUyZYgRV5HscuxkNUIhUdmGgm4n5g7Hfj1OVUa0GZfEBc7LfORkrZImOCLbCI/QIQwVWBzZBRaJPvB8+dR/C2gzuunNqESe0bfuue4L2Db6gKLG1qo34DDbB4KUhMFDyy/BTc3LAP/DGu6KocjIBHuSKL2La+lEvCUkfH5Z5Y1UsLuY92Y/r0Q3jxxTtSCC6e+wUjCRpo268XWpqaoLmhmsDOMYGDWcnFkOSkIzkxUfBxKUlKRmpmAXPmT8J5ikjSDGblNkOfClpOccOe6eYQh2nnIS7oPiLTK6Zi56WmIFPQOqihJOl5EbQahg5He+UnuHUjQSSQCro9MahXZ1gaiZ+BLN+NmLTwHN6U0TR3igZDMayjMp7evIkEcYHQY0hvdLIyYt6ZLPhtnIAl596IBb0QrBpKUGIRpCX/R6OA8t9hOh9lhAxyfpIp0TcYSva/4RHCvk7mWugSo55bSaSUyAZe0t9kwrA9JIZLSN7dhcROx4CM8E4kif/MIUPmXRPFogrz7XX0SJfVoeS74bQ54cRrWGuir21Kxh9P/DYihRtN9jjpE/2W08jlT8EmnH/J3t03yLexJxWHgmdbyOTVQVLrXzga4HvpP5HuQxba6xEj+2nkzOsyCVf5CXgk8eAw0kyvF9kWIa2MGeTcRFNiMvwwEYWYf7xPPDyCSI54J8kLP0W2HggiH755gD5RQJ7tcCbtbWyJw3dTezL/UjZznnQyzk4krYxGkL/FBSK+bp4k+FOBSB6JOLmFHAySEGWVc4FMbaZHHFcGMxmU8kK2BDvnJplnoSMQ6C2MQOcQv8X2xEC3E1kXKllqMs79QQZv/FcUiicOB9Qn3eZtJDMGuJIbotA6Dgld7UgMdWzI4rvfxiRx4++Su199DbixnmSogQ6xnH1d8JgXhffem4w01CamY44VGZjA40l9M8sYYYgh8+dneCT12B9k9rlyHgCR9YR4upgTI6tx5HBUxY4PSz86mjTX60o2PZEm2DyScMCZGLecQa5mc0ncabfvh9CVMryEA2S4YSsy60o24cadJh6n40iJSpR1ikw00CPd1z9mMijlhUy5RDj/+uFBmhwaWNhCR+QMrgHL/r2gjde4eu6BhKkdsxDsG4/mts1EvmMFzQZQl+ci5uwl1Jjkik71BNXnxSEwKB58VQvYmX8bH8GN9MHNqKJxZvKa2mhcUx7KNb8dwJ0Z4I+nnGqCf9MOhSP3WCzBBj8R1zbugX8JVhrPvjwfXRzaokOJUkeM2hPBnCmNfCQFH8TCAQOxLvjrK1WAsHAujH7lDH0/St4LHJs1EZsjDTHHcztGGFXs+LAaamqCp68AnHxpLhsWNCwsoJ0bjahnd3AtwxzdRSF0OYjzdcOcfv3wP5+yjV9kaViijU4OYiKf4e4VNtr0aCLu/M6Jg9+eWRjQdwVuSypSfr7g6ZGDqlpdJoNSXsiQYOcj6p4/3pFaaGlt+jn0rHpLJ/RqxsL7a2dw7+uwI/Z9XA2uDzNT5mglDWiqVUOjAUsxr3NdUeV5b+/C9wUXCsaWsFAWH/YFHt6/Csflv48U8VdnPbiL0Oym6NanzedyiBF8IO6FIlu+EVq2qV8kEoTPfobj88Zi58eWJZpBrkbbmXA/sB9eJUpeWDVYjzlTEjy8vrofF4RzFz8JQ3BgTNGOJl48wlPqo0Wjcopd4cbhvOt4rArWwiQ3N4xvWY4fjhIi37gxGsjlIDtL+kBhBX0zGNeKxXWPKBg4mUP8eCmjsY4ikmLrwqhlGXcYKOjDzEQVsVc9EWXYD20+Pe/KjaGjmIi4us0gqUi8rGzkCsqt1bgek1MCeO9we+sc/DH/AELZFbTnWAaRDcHmp+DRifVYfyoGPJKHFz4ncDeaMQUUDNGvXysopFzGBted8IkRW4+8N/ewx3UDrr2PwI0D/+CZsPNKoQEaWgzB0oWOqAs2Iq96YflsdzwSnMKP98PJM0F4W0TJuIh9T6AndwWuE5Zgz9+ncdJjMSYsDkLzRdsxw7KQXHPjcd9zKbbfSAPhvcXlVdMx19UVrjOnYoJzT7SzdcKS8/lo19/yK5GXDEtVC3oGBjAoUdJHU/XiflUeOj0mY+IkJ1jV5SM6JKho9EXWM0RXN/nuDH2lguDFvrF4HBb71ITLDg/MtP4qTK6CoqBjDEOVTKSlFRPqVs0IhrpqMOg7CO0LDbnPDA7CSyM72H0df1rqKMDQSBd1DPtiYAexwSImE8HBL2FoZ1+kVfgJXnIyUuX00fxH5hbnPMKFA+dwXfDebjwRz2RS/jOMa4QiES5JfJso8n9zM16Thz5XyJXrAeR5ikzM9CMBcUeYfouJ5Gw6kyUgz/9/ZOqOSPGQ+7KEl0Lu/a8nMTN0JAuuJJTMn1oG5OXmfdvx9jW8JHJ0lCnp+dcT6dct4w7ZuekqSSryY9nk5hxr0ndzeNlfb8H9v7t9M7lWtECCIt0gc616ka3hkkvEPjWBtOy0ljz6oceeSz68+JeEnVtAxm4OY/Io/xVZMGbKEXloNtQU+b/la2vD3LEHenS1hWG9H7A0KhS1YGVjgmrZjxEc+smRzkNi2Hv8ZqJT4hjxXwKfjQfbJmHm4Ux0WLcfq3po/ZLBRP8lXI7zNgDei5zRc+Y5gc35HVj10L5TS6SEhUFi5KHQJXAqATbju6PIPFr5kXjwRAUWNsqIjWXmhi0TeHjncxoJtuPQ7auJvfIjQ/BUxQrWyrH4tkgcRDx7CfV2nWDyQ4+9PNT0tJAYKY9O/YyYPMp/hQp2lYIFDRsr6LM+4GFQBMRu+Tw8ey4PE9OyHGCdjWdeU/HHngRYLt2LjQOa/uTHgofXx5Zjd6FO1Gp1ddHcSAtfj2f5PjnIgDaa10xDcl5JJrBkoX6vQbCODUDgZ3XPgv+m0RjruhVe7teAbkNh8fU4LH4KktMVwI6MBl+j9H31WX6bMHb0fGzz8MANdMUQy28HhpHkZKQrZCAqmodvisR9Dv/Q2ugzuM2PrfGZ90Lkiszt5woXvTI1BSo1VLCrGAq6tjCvT/A2JBCiQXj5UYjM1UWLMvOncvDi8CxM/isKhnM9sHWkUYl8+hLJDMah/U/Br/PFNlc0HoRZY6y/mZ7g+yhDs5Em6tSsgZJqPatud0zok4Krl98xw7urQ11bDw3UNNFm8Bg4NpYgVEpdsfr2Kawd1xmG33Ry/3qqq2tDt4Ea6psPxqhOjSV+GBW7rcXNU+vxe2cjpmP0C7kh5xCiNw4uRj8oukqG6DpuLHobV/xpZ2UJKthVDUVT2JjXBi8qBCFpfPBTw/CmlgnKxgjiIu7sXExcFQytKW7YPbGlhHlbSgYnKQhef7riRLoemjcVFr48wuUUYTZ+Jpre3Qs/UYRSdRgOWoY1C11gLnU+cRZUaqv+mLX6H6huNAhL1i+As4W69JedpYLatSWUiBuN40c+YOCcnhBGwFLKH5lbwIDyX+Ej7fg4dFj4CB13+GJ99TVYkDgb20bX/87XOxNR187ixoNwRMWpY8iWuWjz+hR27DmDJ/wOmL9tKiyKVV8e3l1dhDGzTiKujjUG9DWDpFlbioWfj+zMVCTERCIs/BU+cIBqNkvhc3QstASF57/dj5G9/NDXZy+GChQm/5EbZqzzwYdiosqqGY3A5tVOEM9IwMOLHf0xKHQY7nsPQ0lXvOKEe2PVud8weWEflFdk5K8nE6Fua3HX8E/M7lSM2FPKFCrYVRBerDuGdf4L74fsxfZ6Z3C7/RbMNf++zcfPicIelz5wV1mKszPkcOWZJuzIEYzfkIZx/5zHzObSzHQ+Uu+uxu9TDyDylxq/LDQefQTXVtqI3CoZZyai6wkrnDk2Hj+36PvPCbaQnJdP8VbLDIYVP4S8ZPDeIixCEc1N1X9JZzDl10AFuyqS/y829hyE/XJDMdwwH+Yb/0LPkghN3h0sbD8Vr50WwLGJGVyGt0SG1zB0dWuIbX5b0FWaTzbPD+udl+Fmxi9+1OSqw+rPk1jXW2ir5+DWn47Y2XA/zswxFvlq+Vlv8TI2HQXF/LNyyvWhr6fO+NF/XrAplLKACnaVhIN7C9pjwoksqLabhXP7S2aR5oeuQ+9hl1BnyHSsXuYMw+oZODepHVbylsFn7yCU68Dl/FCs6+kK7v/2YZiWOvS1VcB9fgabDj7A5+nPJSDftAdmTW4P8bgWLl5sFwj2Ixcq2JSKiVCwKVUP9vkppJW2HnFcIX2GvqJwycsdfYmRXjey8REzMVOOD5lvaURc9r35/kCT0ib3KpnVpiv5c+9N8vz7E9dJII+8f3KFbBpiSozazyJHfZ8z+RRKxYFa2FUUfuIhjG6/CbU2+GGPUwlCr/jv4D3cEZtYi3D98ChRJ19+6Br0dAmG0z9nMVVfuG5leXZN8ZHNzkK1MozAoFDKGtr5W0Vh1bOBtakJWpuVsJcsMxBBYfKw6NHtc0TFm8AHeNfAEpYKd/H3pZfMQJzyomzD5SiU8oAKdlVFwRDTTh/DBN2SxQBkB/kjtMAMHTp8CvHigZ35Efw0Xxw4x0fnXp9WLqFQKKUFdYlQfh5OGt6lV4NGfdWynYeEQqmiUMGmUCgUGYG6RCgUCkVGoIJNoVAoMgIVbAqFQpERqGBTKBSKjEAFu8rCQ3rYeWye5IRFl0uwjDuFQil3qGBXRbjv8OjycRzauQN7r79E5k8sp0WhUMoeKthVEQUttOk1HJNH2qEenTuTQpEZqGBXZVgs+gBQKDIEfV8pFApFRqCCTalA8PAuaB8WDeuNWcdjEX11F+YNcMTw3eHgMkdQKFUZKtiUCoQ8tFrpgB9XDRpyIXjeZDiGtJZDWkYesyo5hVK1oYJNKSG5uLfIAc20daD/K5OBCw4lf5Hj/IhgPCFKUFJvhx7Ns/EsnIOW1sZ0JkAKRQAVbEoJqYH2Sz2xoH2hFbTlaqH1tEO4ExKCwJKmYD/cunoSe/43Du2aKAEkDSmJnwSbhzj/YCQ26YT+7euDxQ7Cg1hT2FnWYPb/YvgZiLz3gNmgFIWPjIh7ePiGxnxWJKhgU0pODWOM2e2BObZqkBNuk4947D4fa2+zoaqhDvWSJM2G0G5uia6jlmDvqU3oq5mOpCRGFPiJCAhIgPUgJzSVF9j0D4MQbmgHk3cReFMaTmx+Aq5tP8RsUIrCR8LVHTj8uHyXpaAUhQp2VSaPg3xCwP8RB3HN1pjo7o4/zFXFos19j5tLx2PxhTc/3DHI0uyOKc5NkZ6cJc5gByIwxgyOHX4TPJh8fIhPQF5WFELS60CLTrhdMvKzkcHOoZ20lRQq2FURfioifE5i94F7SONz8PSCB87eeIJPhu73YNW2wgzP3RjXoqZYtAvicH7+OKy8mfSDnYPy0O01EX30hfacALVBcA/ZhyHqwseShYYjPXDr71VwsdMSHFk+5CcG4+LtaNkQQG4sjk9uDyvznlh2M7XYe8FPT0ZKHrNBkRkq7wIGvESEXjiHG8GvkUGU0GrEEgwzk9B1lfUQ3htOIoIjh5qNHTBwVC8Y15b+HeO/O4vFu+Qwd3V/1JVyGD/lCa6cv4bgl6kCC5bJLAIL6m2nYG5fbWZbNuEn++B/o6bj7yjxXCRyNVtgnPtBuDrUlQ1LgBuOrUPcMfvsTiajMHykBbpjs48Wxs91gq4Sk11h4SBiz2jM8LPGDKcMHPRMxogDuzCgsZRPHfsZznpeRrbjZAw3ryPhfnERvnkoPA3+xva+pdSHQPlxhIJdaeElk8MuhkSvqQEZ6Z1MeEz2F9jEb5kjadZUmxg4LCK+H5lsqaSTW/PsiZHDchKYx2RJI9eHLLDQIfqm48ix+DzC4/FIQS6bJL0MJN5THMn4oynMgbIN9+1lsqCj8Bpri5K+2WCy8yGb2VvBKQgjW/pPYzaKkhfuQcYMXU8eZjMZFZy8sH1k4bJzJCZXvJ355CBZtOw0ieOKtyWS95J4TxpNtoRIul8FJGzTADLjQg6zTakIyIQh9NPkPsKTJFXUYRGkJL3/ponIvrcFuwIIlORY0GzXA5Y1mR1SyA31wM7LSeAmxeBVZvGNf/6HeLxhC367TSd0bqgIFosFBSVVaOjbYHD33mhpUoc5UraRb9gTqw6sR58m1UTbhP0AOyZNx/7wHNG2TMKNxP4lB6A0aCxaKzN5FRxFk7FYu/JLS6CW2WisWTkQTYrzJSnqY/ifVgiavwo3Un/MmUUpHyq1YHMe+SPJpidMq/GQ9j4RhV20/Iw72OLOhr2NEnJRB5YOraHI7JMI9yWO7k1Gl2EmUODGITq6gNkhmczAAITlV4epgwPUmKvMz80VNFyBGp0n4HeTytOLptC0P9bv+x+6NBDXiZ96HxvHz8aJl8Layh7sm544HG2KLp0LhTBWUuR1e6Kz2hVsP/BU9GxSKjaV+HnMR5hfNJq0c4BWHTl8TErCZ6OYn4Y7GzyQO3wUFKNiwFVuIxBuFWanJPh4d94djy2mYoyVHlRJEmJiMovp1MlGiN8jZCsYwrZtA3GHGT8FV/eeQLSw90q5JlTKqxetlFA0cMaWfYvRXl1cMe77G1gxfiH+KZV4vNIkA/cu3Ea6TkuY1WKyROTitd9RbHOdAJfBC3DhU+w42wdrnEdgw+20Yjv5So3cV/A/uhULxzvDef55fCpWps8qDB++HnfTvlMq+Uawt2+KVycP4R4TrEOpuFReweYKHuSn6rCxbIL66iyQlETmYeYj7dZf2McdjblWzxEUno/qZnawrS06SzLse/C8Vh9jXfSgpK+PpvJcxL+MgVQbm/MEAQ/SBcKshNQ7++C2fSNWTB2LfRnGMCihYZ0fdQVee9zgXqLkjhOBScyZ5UcN4zHY4fUnbH4TP1YFceewcOxy3EoqFyn7OQT3LuTfLLA0G0CryEe1BnQcXDBlghVYkedx7GK8uMWmogMTzUTcD4wtn0iSGrqwd5mKcVZyiDp/FJfixe1IZZ0W0Ey6h8DY75VKAU11m6BaWgDuPqQ2dkWn0go2750vHqlYwap2AzTQYIEnFGzBs8tPuYGNe/kY7doNyiH++DdXAYa29tCUeiU4eOx1BDznCWhTQ2CQaBlApw5BUkwMPkrRIW6UH4ITAY22/dCjlSlMjA1RJw8wbtuyxEOsSU46khMTkVSilIzUzOJdNGWFSqsp2O0xHW1URQF/yIsPgm94evlYnz8BP/MN3qQRqNSsKTGUUNFgKIZ1VMbTmzeRINRGBV30GNIbnayMynH4vCL0hw5He+UnuHUjQfQhUdDtiUG9OsPSSFyqLN+NmLTwHCQNXFTQ0IAa0hAdJXhoKRUbpvOxksEjSX+PIyP2RBMuySP3FlgTA30XcjgxkVyaPYgsuJoiOEKYb0MMdB3Juocc5rxv4b70IsOtOpERk6eSaVMEafIo0sNUhxg4LCdBEk/jkphdTsRIuxWZcelT2AmHPPHcQ25+NwqldPkUyVGS9N9IJ7ddHYihngOZcfo1KWByKxz5EWTf3LXMhhhunAcZoqdDbOfdFjwhksk4O5G0MhpB/k4Uxh19JL5uniS4SDCFIG/DeLL4bLzgaZBCwVOyy9mBONjYfj+1m0cufzdaJYOcm2hKTIYfJuJi3SceHkHkU7Hywk+RrQeCyIdvQ6UI59E60lVXj3Rd+4jJEZJPIr3mkXXXaJRIRaKSWtgfERiQgVZ2TQVWkjzqN1AHiyQj/NBqeCtMwNyu9cDKD0dASAqgbg07Eym2ET8JF3f4wnLfFRx2242dewTJzR0zO6qCJL9CDFuC3chPgX9AJLg1WsPO+lOIQXWYjZsEx+9EoVQOsvHMcxrmnylA+2V7sXGgtqDRXUGR44Md847ZECNfS1XUv5CbJ32dy1rWtjAhYXj4KA+8+OuIUO8G8yKhytVQV8cYBlrMwCJJKJjij2O+8A0M+H66txE9vxutUgtWtiYgYQ/wOI+H+OvhqNfdAp+KpWg8CLPGWH/uAC8Cn4AISqqkVDjYXA48dgzeUy9JhaJyCnZWEPzim8OmmVAqFFC/vgbkuTE4908NTJjfWTTghRfnj6A4PlQt7dFGyqAI9t0dOCI3CCOMCwt6NTTVbgT5glhEx0jwD2YGIOApB9WMbWFb+O0Qre7CR+LVjXDz+/6it9mX56OLQ1t0KFHqiFF7IpgzpRMd+7rE6efg4MWR2Zi8MRKGcz2wdZRR8ZE3FREVPeg1YIHzMUtq1ARLwxJtdHIQE/kMd6+w0aZHk6/cJ4poPng2RlurleELxoKGhQW0c6MR9ewOrmWYo7sopi8Hcb5umNOvH/7nIznUknzMRDapBs1GDZgcSkWlUgo2+/4VPGjQEi0YtVDU1IRatUbov2w+OomGJ/Lw9o4vXnAV0NzSEhKNl8wg7Nr4GJaju301olEBjRo3gLzA+n7x/MM3vtmswPsIzZJHw1atUb/wW8xnI+yoK8Zvz0JLi++PHKvRdibcD+yHV4mSF1YN1mPOLC+4iDs3D5NWBkFryh7sntgSxcXdVFiqt4C9VT2QhFhI7a9T0IeZiSpir3oiyrAf2hR+gHLi4LdnFgb0XYHbZRyKrqBvBuNasbjuEQUDJ3PmuVZGYx1FJMXWhVFLSZYJHx/fJiBd3gitWxcJiyke3jvc3joHf8w/gFBJLU1KqVDJBJuHN/d2Y8H6q3gfcR3eF58iXfAsKTRoBPOhy+HqWFeg5hG47rkM89xDkS94WN/4Hse5oLdFevj5yUFwm/UnDr/MxpuHgXj9ec4FLt4EnoTX5XAUCM5+fOQvHAp4+3lf/D1PLN92Ax8IDwn/rMbM2a5YMHcWpo11Rh87OwxYdB4F7fvDogTDnFmqWtAzMIBBiZI+mqqXpy3Lw7trSzBxwW3UHLETbrOtUczo/gpODdg694f221A8eC+hh06EAgyNdFHHsC8GdvhqGL5yY+goJiKubjNI1MfSpJoRDHXVYNB3ENoXsjIyg4Pw0sgOdhL9IQWIioiGQque6K4jqZtVCpxHuHDgHK6fWI+NJ+KZTEqpw/iyKZSfhEdS7/6P9DE2Il3mXSUJxQ2FrmhIG5rOSybX53Qg/beES+kwzSB3t28m15Ik9OCRdHJmQhvi7FlMh2NpkXGH7Nx0lRQtVja5Ocea9N0spS55wWRVRwey4GYGk/GJ7w1N55IPL/4lYecWkLGbw5g8SmlTySxsStnCBztkO6ZM/xuZjmvhtbb7V7HL5Qcnj/ONu6rEsNTReela2D3eiWPRX88HLWhN+JxGgu04dNOQ8PrkPEDgkwawtmcGTJUVQhfFqQTYjO+OIsXKj8SDJyqwsFFGbGw2k/kJPpIuHca/lksx17G4gQiSkIeanhYSI+XRqZ8Rk0cpbahgU36a7KdemDZ5DxIEL7znXwPQ9CfDQXivjmHlzuAvnXxZvtg0fhHO/8RqJ5y3AfBe5IyeM88hk8n7GVh1bDFn6xgUnNiDG7EcZPltwtjR87HNwwM30BVDLCULXH5kCJ6qWMFaORbf6OMvJwv+m0ZjrOtWeLlfA7oNhcXXxeKnIDldAezIaPA1ivYqZIcfxZ4nbbF2ZVepM09KJe8Fbhz4B7n9XOGiV2HjgCodVLApPwXnxd+YM2ETnhv9CbcdI2D40/7aTIQcPICn/DpfLNJqdaFjbAitmlKD4qSQgwxoo3nNNCTn/fdZg1l1rTF24VjocFIERrc2dBuoob75YIzq1FhqqCJJTka6Qgaionn4Sh9LgepQ19ZDAzVNtBk8Bo6NJZRKqStW3z6FteM6w7BQ5ygvIQjXX5lgxoohP3fvlAzRddxY9DZWZTIoZQLjGqFQSkxB7Bkyw96QtOq/mYRkSPLjlpC8RBLkMYG0NbAg8258b77aksIlz7f3IaajjpJ0JkcqxUyv+tPwskhGhvSBWLIDnV61IlJ5FzCgSCQz8jrOXQ9BRFQ81Idsxhzz1zi9fQ/O/kvQfuFWTLEs3izkvbuGJSNn4lSsGqwH9oFp7R+1gnnIz8lEasIrRD0Lw6u0fIFFbY0ld49iTEMWcuJ8cWjLZlyvMx1HVnaSHHJZLDy82NEfg0KH4b73MBQ7iW2xCxhUdegCBhURKthVDX4Onu8ajn57VLD44nTIXQqDpj3B0d834MOEizgzu7nU5j4/5R7Wjp6KgxG/NsCY1Xg0Dt1aARthZCL/LQ649Ia/0y14OgtHpD6G+x/rcPtDMV2I1YwwfNsq9Ksv9PD9gGDzEnDD4z66Th3GZFC+wMO76564rzkOzq3Kb5YUSlGoYFc5OLjr2h7TXjvBtVNjmI4YjpbpezG8kxsa7vDFpu7SbFoO/Nc4Y/nNDPzaB0YO1a3m4PjG3hD1l2WcwRTHk7C4cBTjpC1vVSw/INgUioxBBbuqkf8I63sMw+U6gzFt7TIMNaqOjLOT0GEZH0vveWFgXea4ciLn5lx02dYQey/MRnOhqc/PQsKLOKQXFGNhyymjvoEe6onGDlHBplReaJRIFYMXF4DgOD5qWQ2Ek2jqzVw8DvoXBS1sYaMmPqb8yEdkyL9QtrJGjdexEEXF8RMQfOYIjv5dTDp2A+Gf57oV2B/UBqFUUqiFXaXg493BEeiygYUFtw5hZEPB9zo/FOu6uSC4/z84PU1ftPZk+X3FObg+0x7bWFMxd7IzOhn9aJcjB4lPb+PImvnwSuqE5aunYJiDIbOPQpF9qGBXKTJwdmI7rMibj5sHh4sWbeBF78bgXqdh7r0PNs/D0XhYHxiWYx8TP5uNrGq1oUr7uSiUb6AukapEdjACQgtg1rE91Jk7z2NnIouXBr9958Hv0rNcxVoIS4WKNYUiDWphV3k4SEtIRzXN+lClI4wplAoNFWwKhUKREahLhEKhUGQEKtgUCoUiI1DBplCqEvwMRN57wGxUESpRnalgUyhVCX4Crm0/xGzIGvnIzshEjrS1NqUh03UuChVsCoUiA3ARe3QKOrYxR5/FN5H208sJyTZUsCkUSoWHE+6FxV55cNmyFu2iNmDZ2bf48fWIZB8q2BQKpWKTF4Gjh5IwZO9+zHIajOWHt8D64V5ciK96kk0Fm0KhVGyUjPH7hhXopyeajhFQNcOo9SswoEkFWfG5DKGCTaFQKDICFWwK5SfJfeWH41vmY9LQIVh0PhHifrBM3F7ljFHr7shex1juK/gf3YqF453hPP88EpnyZ/qswvDh63G3zCuUi9d+R7HNdQJcBi/AhU8FYvtgjfMIbLidxlzzqgMVbMovgod3QfuwaFhvzDoei+iruzBvgCOG7w7Hj0ZhyQo1dB3g/McEWLIiceHIPxC7VJWh06I+ku4FIFZU8Sz4bZyAJefeVPxOshq6sHeZinFWcog6fxSXGB+xsk4LaCbdQ6C4Qsjy3YhJC8/hTalXqAZ0HFwwZYIVWJHncexivPgaqujARDMR9wNjxc9Wli82jV+E86VfoHKHCjblFyEPrVY64MdVg4ZcCJ43GY4hreWQlpFXua0gRX0MGd4Byk9v4laCUDAUoNNzMHp2toJofQhUQ10dYxho1cSPLldcPihCf+hwtFd+gls3EkQCqaDbE4N6dYaluEKoVlcXzY20ULOMKqRoMBTDOirj6c2bEF9iXfQY0hudrIwgvsR1oWNsCK2yKlA5QgW7ipB7dzHa6etAX/tXJkOM8E7+LMj5EcF4QpSgpN4OPZpn41k4By2tjcUvVSVGta0jLBSfwfdequhaZIU8g0pbB9QU7VVE88GzMdpaTXZettpt0dFKEWH37yNVXCGEqTjAXlwhKBoPwqwx1lCTWiEuwnYOQwdbO7T9buqABZe/t6izKhwcLaH47D58xQXCg2cqcHD4XCAMnDMGVtILVHkQztZHqQrkkPB9o4iNjjbRaypMOqRV/7+Ib3wySU4qaUokCa8jyIOr3mTN6HbEpKk+6b7xCSkQ/T6XvNjRj7Qa4kVecQWbH06RydaTyfkM0c7KDS+BHHQ2IuYzrpBsbhw543aaxAmvQXYs8d09k/Tvs5z4ZIsPLXfyI8i+uWuZDWnwSMIBZ2Lccga5ms0lcafdyBlxhUjs/T1kdt++ZOWtsq0QL+EAGW7Yisy6kk24caeJx+k4wRMnvMT3iduMfsRp2S1B6aRQojrLBtTCrjLUgPHY3XCbawM1UcuR4OMjDyxc7QN2bXWoa5QkaUJLuzksuo/Cov0nsbGfJjKSksR+RX4iAgISYD3ICU3lBRb9wyCEG9rB5F0E3lRWJ/YnWBqwMNdBTnQUwu5cAdu8B0QRZ8qNoaOYiLi6zdBSSXxouSPHBzvmHbMhDRY0LCygnRuNqGd3cC3DHN3FFUJjHUUkxdaFURlXiKVhiTY6OYiJfIa7V9ho06MJxJdYB4pJsajbvCWklqhEdZYNqGBXKWqi1WR37JluDlWRaHPx/voyTFpw8cdFlaWJbtOGosmHZEEDVQA7EIExZnDs8JvgoeLjQ3wC8rKiEJJeB1qVfmEEBei3NEGt11fhFWmIvuaf1qLMRHDwSxja2aOOjL1pCvpmMK4Vi+seUTBwMhdItZjM4CC8NLKDXVm7HxT0YWaiitirnogy7Ic2XwqEkBdGsLWXIZfTf4AKdlWDVRuWszywc0ILptOoAHHn5mPi8ptI+sHeQXndXpjQV19gXQs21AbBPWQfhojWHmOh4UgP3Pp7FVzstESWUKmSn4iQ87cRXY6WvIKRIXTVDNFncAfU/fRW5TxA4JMGsLZvUPrX4FdTzQiGumow6DsI7b9UCA8DnqKBjR0alHmFFGBopIs6hn0xsEPdz8KV8yAQTxvYwO5HCsRPR3Iyh9mQLUpnxZm8GNw5dBw3ozMEzeXqqGfYAU7OVuAHncflu+FIElyrar8ZofOQEeigVw1pz67gzEU/vGKzoG47Cn/2b8b8kABeIkIvnMON4NfIIEpoNWIJhplJ6MbKegjvDScRwZFDzcYOGDiqF4xrS/8e8d+dxeJdcpi7uv+XF+xrcmNw98Q53I5IAofIgVVNUVAbPqrV00erdl3QxaIRmLFXheAj9cllXLgmsERS8yHx4sqpo+3UP9FbuxxfY34ybi8fjZmHo5Ar3JariRYT3LBvgYP061EB4acFwWPjLWhNnPdlJFw5wL6zA/vznDGzh8ZnMckPXYM+83hYsd8FDdT1oa3C7ChPuOHYOsQds8/uZDKkwL6LXXvzMGR2d2h8qRDW9XQF93/7MExLHfplWiE27u3YhzznWej2pUAIXdMTC7j/g5eLFtQNtCGxRN/UORNhpz1wOacTJo1oI1utH5EnuzRgXyYzW+kQA/ulJCCPySN5JGCJAzHQtiDzbhTuIhB3WFkO20+ixT1YReElk8MuhkSvqQEZ6Z1MeEz2F9jEb5kjadZUmxg4LCK+H5lsqaSTW/PsiZHDchL4uWxSyAskK+x1iZ6RMzkYzxVsJ5N//55GOuiZEqdNISSLOexr8nxciY22Dmk19gh5k8sjPF4ByWMnkejAg2Sa41hyLOXbWpQ53LfkyjxH0lzUCSlI2i3J0O0PBVdTRsgLJ54jh5IND8q3R4+bcIvsOxxCvu5fzbsyg1h2mU3234yS3iFW1hSEkS39pzEbUuAmEB+vv8mDryuUe5XMatOV/Ln3JnlephXikoRbe8mRkG+uMLk2w5x0n7WP3IoqpkAS65xHXh6cTH4XvMOZTI4sUHrfFhVjGOsILEger9CAgWrQ1W8saB4K7E65QtYl7x0CHlWHy8Lh0JPk78x9hCdJqoIvIUFK0ntRC7ww7HtbsCuAQEmOBc12PWDJRPtIIzfUAzsvJ4GbFINXmcX7AfgfYxGfxkd1s05w1BKUWVEdLYeORy/dXDzz9sZdiRFJfKTFx4MtaBG07twFWkossFgKUFTVgJ7NEHTr1RImFeGzLt8QPdbux9p+TQR3RgBh4+G2yZi5N0LQ+K3ocBG1dym8awzC2M8OzTIkyw9bRo/Gwi0e8LwGdHG2RG1m1ycUu63FzVPr8Xtno88+4IpLFvw3jcZY163wchdUqNtQWHxdIaWuWH37FNaO6wzDMqhQlt8mjB09H9s8PHADXTHE8psrjC5rfXBiw1h0MvrRAilCf8QcWAYuwOpr4nBMWaD0VENeEw21aoCkp+CLu+gjnjx9BR75iNSUL5KQE3wA19TGYKSJ5IhdziN/JNn0hGk1HtLeJxb6AAikMeMOtrizYW+jJGja14GlQ2sJbopCcF/i6N5kdBlmAgVuHKKjC5gdkskJ9seTPAUY2rct5LdTgLzw7/xc5OSLc4qSiaCAMORXN4ODg7ATTggfubnCC1EDjhPHwbiidMQpNIXTxn1Y0a2BoFYC+KnwXT8efx6PRoX28rFvwcv7JUy7dka98vj2VVeHtp4W6tQ3x6AxndBY0v1kqaB2bVmJQq8OdW09NFDTRJvBY+AouUJQqa1aZnH11dW1odtADfXNB2NUp8bi5/MrWCq1ofqzBZLXRY8uari67QCeyYhLuxQfdXk0aKAOFjcFSSliieW9PI6L8RrQYPHxIUlg4Yoy43F6fww6TO4qxXeajzC/aDRp5wCtOnL4KDjvs1HMT8OdDR7IHT4KilEx4Cq3EQh3cX41Pt6dd8dji6kYY6UHVZKEmJjMYr6uHIT6PkAmSxt27XQ+PzDcWF8EveKhlm0n2KkymYXJDkFAaDYUDG3hwKg8P/kK9p+IFtVZuaZKxeqEUtTH0G17sbCjurhc3Pe4uXQ8Fl94I75HFZCMOxdwJ10Xpma1mJwyproRBixbh/kuFhD1s8o81WE4aBnWLHSB+WcfcflS3WgQlqxfAGcLgY4web8WeTRysEfTmJM4fFcU61ThKcU7o4CGjTTBElhsycnC1z4Tdw+FwWxWXzSV5yMtJVVkKWcH7sMN9dEYZijp+ymA+wr+T9VhY9kE9QVvBklJZCalEfzGrb+wjzsac62eIyg8H9XN7GD7daupMOx7guZrfYx10YOSvr6gHFzEv4yBVBs7PwwBwakgvxnDqO4HJLx6hvunt2HW5N14qe+CdauGoqGEK8h54ocH6QJbWikVd/ftwc6NyzB97F5kGBtItBIkkR91BV573OBeouSOE4FJzJk/SQ1jjN7liTm2TIugIA7n54/DyptJFbC5yMHT4H+RxdJAg4YV6tNHkTEUtHXRuNoHBN4OZXIqNqUo2CzUadAAtcgHgWDzBNb1CVzg98HQNlqoV4MgPSUZBbxYnDrwDl0mtYckQ1UI750vHqlYwap2AzQQfPl5QsEW6D8/5QY27uVjtGs3KIf4499cBRja2kNTao04eOx1BDznCWhTQ/Bt1TKATh2CpJgYfJSiSNzXfgh+w0ethnJ44rEVO92P4+5LedjOO4GbF1ajeyNJYsHFc79gJEEDbfv1QktTEzQ3VEMuTOAgKbpFCiQnHcmJiUgqUUpGambxrp0SodIKk9zd8Ye5qnjei7w4BN+PQHpFU2x+Jt68SQNRqYWapfgEU6oACurQ+A1IexnJZFRsSiesj4Ebthn9nNxR0/UiJrzZgRfDd2Kq7hOs6zYU3mpzcXbaW6z37Qn35XZSOmX4SD4yEX9mLsTBKY3gv7A9xp/WwzK/LVDbMA1+Xd2wpnst+C3sgPEnlTH25FUsMJcsirzovRg9/Djk2hihjlCNSBZi/H0RXXsUDvusgPU3p/Hxdp8Luq4KQ9u/fOExWI3J/w68GLgN6o4tr7tju99O9BR2gOY/wb69yRg6tQszv0TFJuP2AjhNOAP0WI+D2wZCu6TNgrKCFw+voZ2wMX4AvHw3oMNXnRbCeU6qOtGxr5m/vqIgEvsXncfYvxYyGWIq2zUrUn8pdRaR/xgbeg7GfozH81sLmMyKS6naJwoNtQQWL0FyqDvOcHqL3R4KmqgvsJRJymN4HU5Hz3E2xfSgf0RgQAZa2TWFvOA/9YU+cZKM8EOr4a0wAXO71gMrPxwBISmAujXspHRagp+Eizt8YbnvCg677cbOPYLk5o6ZHVVBkl8hhi3BhOR/QID/M+RXN4VtsX6WovBT/BEYwUWN1vaw/lSx6i3x++ROMiHW2U89MWPeGRR0WAbPTRVQrIXI14Kq0LTOy0VuqZkblZRKNEy7xBRbZwKhySqnWFHmDvgOouC+0iLvLllopUv0DHqRrc84TGYOufyHKdETThy0NpQUGwb98RqZ23sJ8WMOYp8YS4yb6hCjtvPIjVRxHDP3xQ7ST0+HmE+7RKSFX2f4LCIDZ1wkzCkMBSRySy9ipNOWrAz8VLZCfLxEZrQU/Fu9tpHnkmLDpZB+ZiJp2dSADPEQT05TBN57cnXDbuKXw2wXQ9YlV9LZ3oG0L1HqQEbuDmfO/Hnynv9NJlnpE0tnN/JEWoB5hYBDHvyvAzE0/J2crAqTS/1KShKHXdkors4CjVok0KgWY08xGRWb0vUAKmihoYY8fnMcjxHGn6xfeWg2qAeF3zph4rhWxYbgse9fwYMGLdGCOUhRUxNq1Rqh/7L56CQKKeHh7R1fvOAqoLmlpWRLPTMIuzY+huXobl9FoSigUeMGkBdY3y+ef/imYy0n5D4eZsqhgbk1mpbYysxC8L1QZMs3Qss29cURFwx89jMcnzcWOz+2hEUNJrMYarSdCfcD++FVouSFVYP1mDN/Dm7cOcwf9z8EN5yCXe4TYVYRRuVJpTpM7K1Qj5+AOGZSfQrlZ+BnvkVCujwM27Rmcnh457MNcycvgHcou8J1uJeuYMtrokFDYwye1KNQrKwC6tdvCJMR09FLavgQD2/u7caC9VfxPuI6vC8+FXV8KTRoBPOhy+HqWFeg5hG47rkM89xDkS+4rG98j+Nc0NsiYWj85CC4zfoTh19m483DQLzOY3YIjnoTeBJel8NRIDj78ZG/cCjgLbNP8BHwP4BVW64imU/AfnYVZwT7visL3Hjc91yK7TfSQHhvcXnVdMx1dYXrzKmY4NwT7WydsOR8Ptr1tyw+TpyBpaoFPQMDGJQo6aOpekl+VTK8d9exbNxC3Kk1HNs8ZsGqmCH9FYUa9s7op/0WoSHvRdFGpQXvXRD2zx+GfjOOI/blNeyeMxCdnfcgnH4nKgUFURGIUWiFHj20mRwOHp/bj/PXTmDDuhPMKkIVh1LtdBSKX/LLWFTX0ysyXp/35jle1TaCgbTQEEqZwU+9h3Wj/8DRvF7YcngtuglHc8oEfKRec8VQt0bYdWYWmn/VCuKE/oVBI/YgUjhRipwKGjQ3gEaxQTp8FHxMwZv49/jIb4JRR29imagnmoM7ro7YrToDQ1uZorPGGQxdJI91VxZBSv92xaakc4lUJqTWmYMH/+uJeVkLcWFj588jVXnp0QhPCMeJza/g4jUbJhWpH0fkGKFUSXgZwWRrf1PS3H4aORv7A4760iYvj+SVZKoVXjoJ2DCKTPWOJt/2QnBJwhVX0sVQOE+KHrEbe5g8z2V2FUNe/E2yurcVmXaBmZuC84is62xLhv/lQ97zeOSN11DSdu5NUoJuiIoJ9WF/hpd4msxwmk9ufDOvD4+k3FxHlh6OZhbnqDhU/LYvpXTIfop9U6bAPcEKi/dtQv+SO+qLwnuF48t2IuTT0N7/siBq3lsEHlgMl64zcD6TySsOVh3Yzt2C0fkn4H4tVmAvFUYeWj3WYO+GfmhajYckn5WYOO8s4r7jylBs3BlzF/aCUkqayNXCi/NHSFITdBzQHvVZbISExMHU3hIl6IagVGSyI3Bs11M4bFiJLkXmNuDgxfWDuJTbF/NG6JV4oFtZQQW7KpL3AkdmTsTmKCPM8dyO4UY/7//+GOwN76d81PnkSfkPC6LmsIGmxjXxITlP8rS0kmDVhdX4BRijx0HqN2KsgCZOG+C5ujsaKHDx9p+FmLDoGt5951uiaDUFM7r9JpB8PpL8A5BgPQhOwqlwcx8iKNwQtibvEFnpl9GpxPASEHQtBiazlmOw4dfPviIMu43FmD7GKKdJD4qFCnZVgxuHc/PGYU2IFia5u2F8y58NB+EgKcgT8+Ydxwd94y+RNP9hQVRlzUbQVFOB0g9rPQuqBkZoKNEcUoTe0C3wWtoRGvL5eHXyT0xec0+8uKw0FNTRuJHwurAR6B8Ds87tRQvO8tPe4F1uFp4Hp6N25V9Gp/Ii3xA2A/uglSxN/M5Qyp2OlAoF7x2uLxyJ2SfjoGYzEL1Na4uHoP8AvPxsZKYm4HVUGMJi0pCParBedgeHxzZEXpwvDm3ZjOt1puPIyk4/NaUo78UODHQKhXOAN5zrMJm/hGw89ZiI8RsC8IHUQutpe7F3thV+LCAmHx/ZXKjUVi5VSyf3lR8unP8Hd4Jfo+6wHVjtVF/w72Xi9qqJOKgwCVvnd/z5RSbyg7C4506suXWEySgFcl/B/9wFXLodjNd1nbFtnRPqC8qb6bMKU/ZXw4QdruhQlmJZFnUuI6hgVxX4Kbi3ejSm74/8tXNdsxpj1JGbWGYraFry3+KAS2/4O92Cp7NwFOpjuP+xDrc/FGPOVjPC8G2r0E/4RgsoPcEWkonQ7eMxcdsDsOV+g+38A3CfZCZ5lZLyhhONvWP6Yyt3Bi4fnwBteS5en5uLyR7qWHtxcZEIFe7LI3BdnwLnXbNg9T3nOucOpnfchp0BF5iM0oKDaM8xGLSZh2nXj2G8tjy4r87BdaIn1DdcwEJhBYT9HbOuQn/5Kjg1LsXopDKrc+lDBbuKwPFbC5elN5Hxi++2XHUrzD61Ab2EMVEZZzDF8SQsLhzFuJ98AUtXsAXw0xH41++Y4v4EWSxNdFp5CDtGGJYoNr6sybw0HZ3+TMKkmwLBE65azvHH9p05GDe36Jw0/MS72HcyG53/6AXhmiHFUpZhfexLmNnhTyRNuYkjE4WrnHMQsHUXcib8ic7CCnAicGZ3CBr/PuqnXGglpjKFMgoFm0L5FWTf+JPY9dxCIj7FQvE+kreRYeTZ06fS07NoklJofgLu8+2kX/NR5Fg6k1Ea8JLJ7YWOxEjPjkw5Hl389AilQUnDFjPOksmmzcioQ4miZfE+3ncjXkH/MaCwTMP6Msi5iabEZPhhkiiuAPHwCCr7kMhKFMpYho4kSuUmH5Eh/0LZyho1XsciW5jFT0DwmSM4+ncx6dgNhBea31bwTDJ/lR781Ke4928B7BZ5YfNQvR+wrrl4+fcsTNwaLF64+Ef50bDFWtawMSEIf/gIebx43AhXR9ci8xrwkPz0IjaP74kRWx4J7kBFoxasbE1Awh7gcR4P8dfDUa+7hSgkMifOF+4zndB/uY8MLEdXcaCCTflFEKQmZ0AhIwoxfA2xX1jBCAMWr8XaDeulpzVT0J6Jg+UkPsWti4GIy4/Hg8t+eJH262dy4KcHYvPE5XjRYxu2jzX+wXhqFmo1NIaZofpPLZP1w2GLLA1YmOsgJzoKYXeugG3eA0LPyBfkoWHSAjU/pEK9uVGZLd1VcljQsLCAdm40op7dwbUMc3RnKqDcWAeKSbGo27wlZGSevAoBFWzKL+K/LIgqRrG+GbrPO47H0XewebgDDH91JEHmY7hNmYdAm43Y/Uebn4izZaF+x4mY1ku3yMReJeXHwxYVoN/SBLVeX4VXpCH6mku4rh8f49/45rA0r5hDeRT0zWBcKxbXPaJg4GT+JXIoMxghL4xga69GRegHoNeK8sv4Twuilja5EfCeMRNX9VfA3dVOFFf9Q/CS8ezCX5jUcxi2hZad80HByBC6aoboM7iDxFA+zuMHCG9oAcuKGlNczQiGumow6DsI7QuVMedBIJ42sIHdl5WtKSWACjal8sOJwcnZf+Dob/PgvqIzSrLGLD/jFV6nFHLJyGvA2LQm0lM00KwZ81UShi1OGIIhAwdJT86LcUG8COlPkRWTB6sly9CbCXssChcvQp9CsY0VmlZU3ct6BY71EizpK4wl/4SE/g5KiaCCTanccN/i0qJJ8MAk7FnXB41KNEAxH1Hef+HYy6LrZH58/Bhxza3w2ftQvTUme53EyTOnpafjaz7HmP8ovHc+OJNgi7E9NCS/qPwkhIZ+gJl1iwrovxbAe4fbpxJgM777Vx9JCf0dlBJBBZtSeeEnw2flRGxKdcHOrc7Q+244CBeZbx7j+p45mHUwHwbNC5/AwZOQCDS0tMJvn94afhYSosIR9uyZ9BQWg9Sis1IVT5YftowejYVbPOB5DejibPl52s9vSA9E8FsrONpWJMnLgv+m0RjruhVe7oIKdBsKi28q8N/7O6oqdOAMpXIiHCCzcTSmeISDU0MFiiVwGfDzc5DDEc8MpdBsGs5c+vPLXMjcp9jSdzayl1/F0k8rNnOf4+wGbzzMLMblodAU3WZP+hwJw32+HYP6P5I+MChf8JvrD+Kl/kCMdbaAugSTivvyPNweNsXAGgcwO3wEDiy2Kvk0ALwE3PC4j65ThzEZv5p8vDi9Ht4v9TFgnDPMS+J/Km1Kvc5lBxVsSqWEE+qGWet98HORgXKoYTsLnnPtP8do8xP2Y9SAZxh1eyu6/qRBKwxbvHN4LRZ6JMFx5SpM6m73U5Ew3Jen8L9DCWjcWBvtRzjBkBqpVQYq2BRKCUg7PRGD7vfFhR29QRdKopQXFaC9QqFUVLh4eX47jj9OgN/9dHQb4UjFmlKuUMGmUIpBLj8FkXcvI8VxNWZYUd8DpXyhLhEKhUKREaiFTaFQKDICFWwKhUKREahgUygUioxABZtCoVBkAuD/Ujy6TNWXXncAAAAASUVORK5CYII=&quot;&gt;&lt;br&gt;&lt;/div&gt;" style="rounded=1;whiteSpace=wrap;html=1;" vertex="1" parent="1">
          <mxGeometry x="275" y="590" width="300" height="120" as="geometry" />
        </mxCell>
        <mxCell id="8PzJGK3AlFGfxufAia_o-10" value="GCN:&lt;br&gt;&lt;img height=&quot;74&quot; width=&quot;354&quot; src=&quot;data:image/png;base64,iVBORw0KGgoAAAANSUhEUgAAAWIAAABKCAYAAACB1F6VAAAAAXNSR0IArs4c6QAAAARnQU1BAACxjwv8YQUAAAAJcEhZcwAADsMAAA7DAcdvqGQAACAwSURBVHhe7Z0HXFPXF8d/kAiIQkFREbWMgFQQF4IstajV2iqKq+5irdvWuqpW/VfbOtpaqziw7lEp7r2qOCpLi1AnWxEECaBsSCDJ/b/AQwETRggk6P1+vB+Tk/Byz333nnfuPee+p0EYQKFQKBSVocn+T6FQKBQVQQ0xhUKhqBhqiCkUCkXFUENMoVAoKoYaYgqFQlEx1BBTKGqIMCsL+ezrhokQWVkNW4P6hBpiNUaSehM7fUOZLt1wEN7xxY5rfIjZ95QaIkjB3cOLMXzsFkQUsrIGhjDlPxxd5IkJmyPQQFWod6ghVlMk/Cv4ceYfyP+gA7RZWUNAm6mvYMdMrLyUAgkro9QAHWPYubWHYVHDTe/XNu4EF2tDFLHvKVVDDbE6IojA7rmrkTRsFWZ1a8IKGwhNumLmmuFIWTsXOx82JF9eMQrzMpGdL2LfKQuN4n+KoEh96kQHxVV4J1ETQyyB8MVTJKQpPnCFAuFb4oHl4dZv87BTYyKWfGYKDitVDrVv5+rAMf0MSyZqYtfcXxGSywrfQkTxvpjVyx6OA5fhSrrqe58i9VE3HWqERIgXTxOQruzuXFfHrQQ1MMRCJAZ4Y0r/Udh8t+YdQfgsCPu+G41P5pxANitryAjv/oE1fxGMWDgW5kq1wrVr55rBgfnYBRgOP6zeFt6g1rirjeARdi7eCcG49fipdyR+XXYcz1S5MK5IfdRNh5ogTETgxskYONIbSu3OdXXcKlADQ6yNdrZtocvtDKfujVlZGSQpOLp8HYJljuZ8ZMIMHZq+QKrgLbhlhjgRh3/Zi/hu4zGmkxYrVBZVtLOy0e6MceO7IWHvOvglvG2hOyEeHdyP1NE7sHPeEIz4YT/WOd/B7pMJKgpSKlIfddOhhmi3g007XTTq4gx7ZXbnujpuFajF0kRBaAgeWjihhz4rKIcIuS9eokCmndVFq7atYNC08VuxHiUM348DtwBnj4FoUwdnpvJ2VjaaaP2pB5w0buPAvjtvmVesDZvJa/G/oTw2kKoPu8/X4H/D36/9UlJhGqIC7iH5ZTzuP0phhVWhSH3qTofCtEgE3U1CxpO7iEipqxS2AtwJeQjzHj2YmiuTujpu5aiBIS7Eg6BwNHdwQiu1uCzUBZJqrF9n4/qfJxCv7QD3Dw1ZmTKp/3bWNOyNPt21kXDyIK42tHWjwhTcPnkVscqOw1WFVgt0GPU7/P/dAa8uxqywYaHVwgYjNlxH8M4v0NlYl5UqmcL7CA5vhu7Oxso1YjKOK8lIRZqAfVNHKO82mIUJCD5+Gv5hCchhDqnBNYCpswfGDrLDe4JYXPU7jmuRaSgkGtBu2QmfThiDHsbMtVcUCW/PmchYcgHfu8hI1JI8w97ZW/H++tXoo8PKyiFGtLcnRtwZg3/2jYEBK1ULxHzc2LQeV0krvPS/gdbz92Kxu6HsjpN1Dt+4f4WL7ebj7PFZsJTnltRVO9cUSTJOLN4CjW9/xFAjeUNBjNhNwzBofSIGbLqOjYPq08dQHMmLEPzxyxWYTF2IIbzXbVWYEISTp/wRnpgNCdO+mlwtaHE00EivBUw79URf964wkdlHq4elmTn76k1i45+wr+QjST6OpZs1sOAnTzSXc0rUTQdpfU6cuoL/EnOK69PIwAxOHuPwid17EMT44/CJq4hMKwTR0EZLu0EYN9YJJd15A0bMyMCiiyvhXHqKBHG4tt8Pl2MzmZ6nBaP2H2LoaEdIQk7i3PWH4DPTskbNrNFv1Hh8yGuEF/fP49jpADzO0kQL54mY7/mB7ONm3cfx7eeQ12c6xtkb1I33KjXEyiONHBxvRXjmPcic03wiZqXFFFwnSxwtiKXdJPLX89efiJ/tIuMc55CLuaxAeI/smz+FTJ38JVsmkE8c3ciISaXvmTJ1DbnILz2GiERtHEzsJvqSDFaiHohI7O7xpP/XZ0l60VNyZN44svx0Uvk2KUPexbnEwcyCuHx7jQhYmXyU0M61JOPyt6QnrydZGVR5bQVXvyXO5ubE4ZtLJI+VqTWCh2T7hM/Iz//Krq047U8y0dKMWLkuIdczpQIB4d87SzZ4uZGuvaeSXWFZJV+UUhRJ/lpUti9XLNPIev/XvZZnaia3VE0GubLQlVi7fU+Cq+hAaqcDU5/PpfVx/IqceTWuSxBcW0RcmP7TxcuXvO7OYpK0awxx+foCeaM7Z50jc7qYM7otJ6+7poAELXMjVmbdycK/y55XEYn2HkIcxuwmsUXS95UcVxBD9k37nKy/XaZtlIhyDbEwjKztyyNWLsvKNEIJYv4BMrG9GbGb5EfSy7R1xtGpxMmrvKwc4kSyZ8YS4l/Avn8DNTXEOVfJEld38kOIkBVUhpCErepD2ptakmGbYxmNqqAu2rkm5IeSXz61Jdam7cnEA6lyLy5SRDGbyTCeGWnvvorcqU5TqJQiErF5GHGdeoSkyVFKGLaG9LewIM4L/Uk+KytG8IB4e1gzxmQ2OZOiaCOLSNL5dWT+VzPJ5IE9SK+pviSuys5QQn7oWjLExpLwrMaTg6mV/7666VBan57LAis4IWLC3z+e2JjakC/90sr0swxybKoDmVxOxiJ6Qv7wtCRWTt+Rm68OJiYpe8eQD8zsycLLZX5BlED2eo0kv98r7ZiVHJdBFL2FjHJfQC7J6xy1QKletjghGLfjJTBwcEOnCrPfnKBA3CvUgq2zCwxe/ap0Yfw+3u9hj/yoaGQolC5CpG49+1p9yLh8CJeE3eBcnewHyUvcv/+MmU5x0dLEuMpgiWrauRQRYv7chdQBo2HDFSEhJq7SHVSc1iZoyWXq/Ow+7r+sx3wgRci6gh37YmDXvx9kr7aIkRh0C08lTWHv1h3lguraHTByWDdw+Zew0y+GaSUFEMXgoaYHVntvwc6jv6JX9GFceFyNHAbm73x3puKjMbbgip4iNrayM6JuOpTWxwAOrp3ZwGEpOQgOvItCrY5wcimzpFcQilv3TOHYrQDR0Rnl4y+cVmhj0hgkIw2pryLEObh77zHEJAfpaa+Dh/m39uCioRcm2LJjtLLjMnAsPkE/w/PYuOee0oPPSjTEEvADAxEpboJubo4ovx8sH7dvhiKXYwUnt9avDY0kC0lJ+cwgvYXHWqYwrHFthEi5dxlngp6i8OltXAiIZuWqo/DeX1i1bAkW+wQgF09w7sdlWHs0ovJOzQyep8lMZ9VoCj09xmpViira+TWS5JPYHtYd079wBE+fgB8Xh5zK7CtHD3pNNZjxloyn8fUd+ZKSj8TQ8/Db9it++G4RFs2fi7lzvsbceVsQkMV+hSXz2ilcy7CAXSc9VlIBCR+Bgcy51OkKV6emrLAUTRiamTFtW4To8DBm6CsA9wN8NMAKxWZBywgtjFvB2LCqfCAJkk9uQ3j3mfBy5EGf8BEXl/2GEXmFuunA1kfcxB6uPSrsIs2/hYDQXHCsnOHa+rV7IslKQnK+CM9ux0Hr/YoxFw5at24BTVEa+GklFwBxjB9OJ7RES00JXvL5JWNRnICju+Pw4fT+r9bTKz8uA6ctXF1N8fjwftxQ8kalqkZ9DchCSCBzpdDQwcvgTfjpESuWQrJw7/pLaLYdDBdemZ/UNMZon2vwbGKIKu2PTLRh3Gkg5h9iCiupmkJEnd+La/HVzJbUNEQXz1FwqmaqgVanMVhq3Q7L3Y/BfPgy/Ly4a0mnrIyiZCSnSg1xYzStckezKtq5lCz843MJxl96g6fzHJZmHOYaEgOpA2ZUwTN/hWZTNG3MDMT0VDxPlt4CppLWKIzEhb3X8LSa9lqzWVcMGSU/C0SccgObv/seuwKy0bqrPSxEiUgy6IgOzbjMaTWBcbm2FuLerf+Qq2mH1m3kzEmyghF8Twitjq5wkRUNKyqESDpBKxJBJLWE1esyMhFGXEeq6zRMkRsIZcm6ge0XjfHFJh50nlvClFM6S2lRwbtkUTcd2Ppo6LxEsPcPeFTGZpPMu7jxUhNtPFxgUa47j8GW657QNdSXYcC4aNO2FTQliUhNZToSLw/X9z9Ap288kOH1EAlp6YwPztQteBf+bvE5trZ/fYTKjyuFC1OL99HoRRCuhwrR/0N5nb7m1KKZK5B3G4GhecwF8VN4jeiPj/q/Ln15hXieQdDc0Q0dK4xDrfeqMA6MERm2Yh6cahHJLQ9BfgYf/JSU6hV+GrILa7b0IU66j8i0prDtYl21EWaQ5OUiV2p8NLjgNqrCA6qrdq4GwrCd8JV8hsnSTHdOG1haGIDw4/A4uzKXmNGJK9VJjNzcKnJKJQXI5Ms4B/JKWjbk3htHFIXdX38Fn4eWmHf0Gi4c2oFNPwyAbi4Pk9b8ijXfecKybHtIspGY+AKkiR6ayhkVebcCcCePC0tnN5i8YavFeB77BFlEAwZt2kC/NiMr9y7Ohlpi2oyu5ZcO3kCI8B0HIR49Bd2kp8TECuYGlc9S1E2H0vpYfzoJwweU7c/9wCt6jkzSHA5udhXGkRb05RpLTRi0bg098pIxxGLGGz6EU5LB+KybCYwaE2SkpaJIHI8je5Lx0bTeFXKFKztuCdyWLWGIF4iNrG6OdzVh14prjeDmUuJmziP9V4eR8jEZEYnbMpRYm9mRWSfqJuKobuScmkG6tB9L9lcz4CGK30ZG8swIz6IPWRNaeURLZe0siiU7R/cg/cfMILNnzGTKDDKpfydiad6TrAyupM5sYJFnaklG+jxhhXVP9oW5pIeFA5lzJv1V4KUo4ncypP3H5Ld7xSHy8oieku3DLYmlw7fkWoUAaAkCErDUhVhZuJOfbsvQV5xI9o7+gPDM7Mnc87Vo//xoctnPn8QV1yGfPI5OKBbLQhSzg4xz7EvGT5eeD6ZMn0gG2pkTK7fviewYsbrpUFqfvmRtWIX6MP3NZyhzPuxmkFPSzI4aUHR/HfmEZ0lG/fGIXF42nWyJYM63MJSs/pBHrD19yEP/pWTCikCFsnhKAosl40+ZKMkjLkREwC2kMtMhBxeb8lcvSTqCgiIg0u4CF5eKa1JvI4WIuhcJoWlndJaXzFkBDW4jlDjCRBp6rARVtbME/FMbEei4C2d8t2LT1i1M2Yot37gXr0k+js2SvybJfCIp/lCD8Yxr6ZJXGyFCr95EZuuP8Vm/5q+mfXkRkXgq5oDTiBWUhaMHfakrLCiQvYuz8BECQ/iAkQPc7N6c5xSE7YffvwLodJqIKX0VzJcWxePY/OlYue1nzBo8AAP7DsWW+3KmghI+TnvfhMOu8zjgIz0fTPHZhjnu+iCpjxGXJeOMqJsOpfVp4QjnDuXrI0kPQvAjEbQ7u8JJzpK9PLhtTNBKkyD1zjYcEw7CGOnyA7cVjFtqgqSFY8eBDHwy2QkKbTWRSMeoBnR0lDZFL0Y5hlj8FIFB8ZDodYezfYV1k5wgBN0TgmvjDOdqGqa6JQ/nv+2LD916Vq98OB7bHtYgyMQYxAcPk9C0YxdYVdPuaOo2hnaxIZZAVNlPqaqds25g0wENDJvQoZzxb2RmhrYcEZ7GxFUSjGSmh8XL8RrQZvSslLxzWNJHxjmQU/qO8wEzVt9EkonExGxo2XaFXel4kaTh6sUQCMx7onfZBcdXNAGPZwJNYS5yZYTExU8DERwvQdPubuhWYQxKMgPx29J9eGzYB0vWTUMFm1J9uGYYvtUfN69dwoW/meJ/CeuGtWA/LE/WdW8c1BiB8TblzghMzdqCUxSP2Lg3G0bddCitj153lzfqU5z9I+Sig4uz3M0pctE1gbEhQeK1OFhP/KgkOK3ZHK1a6ECceBWR7SfDs61iY4TkZCOPNEKrtq1ZiXJQyogVJ/+DwCgRGnV0hGOFy0zmzasIzeHgffsekBcDqV8ao+c327Fjz+7qlR2rMKJs4KsqhA/wIIoDm25dZAdLZNG4OZrpMpaYCBiHTL5PrPR2Fifj6u/zMGvRHtyR5UEVk40Q719w19EL/SsEXbjt2sKYw3jL0VGQm5lGGA9TekMmDV00a1aFp964J77aLuMcyCl/rB4BmadGswlatmwKLZ3GjGkqIef2H9ge2Bwjl0yG7IxCLdi6OsJIkiQju0OM5BsBiBJxYd21a5lMFTFe/PcXlo37GmebjMX6Q1sxzkp5ARy5ZIdg8y/hcPh8QAUjxUXbdq3BYbzl6KiXFWYpaqbDq/o0gq1jjwreaSYCrkqzf96HvSNzYWGl1YZrgjYtOWjW58syFyoOWrU2ArdZX0ydXIOxWQ4Jcp4lIYNjja5dS910Rg//DVgwfTH23alsZlg5nBUM7GuFyH50Fj4/eeNMXC4I4ULX6H1YtjeGLnNVvr53E37efBxR2WJINHSgb9Qa5hZGCjaCsmA8M71maN68eTWLAXRrYIdFUSex6WA++izygmOz6l7n8vHg1BH8+0ITvAFTMECGK10n7Sy4gQ2z1+NCWDCeNPPASPsKG8QlqQjZuhALt4VBbGQOnk1HmBmW1E2UGIJj+//C2ZB4ZKUmI6MpDzad2r0Z4BFF4ty2c8yAM0WfL8fDpbLsEw1t6DWTdQ5kl2YGTeQEVrRgZqmPiBMX8UTPEPlhh7BxXzx6LNuIhX1ayR3YjUyM8OL8XoQZDIWn/Xusl5KNiLNbsWrjaTzOFSOHn4ik2HCE3PTH+WNHcOmRBjpNXIG1iz3RkW2bukSSGoJtC+Zje5gYRhZW6GBrhpKfFSEx+Cj+9DuDW/FZSE3OQFOeLbq0ky4xqJcO5evDTPW5ujAytYSVsS6K4q9h/6a12HIsEtlixqzp6KO5iTnM5ablyECzEZ79E4DW05bgI5NSfTRAYvxxx3o+lvST3wcqpxBhfr/jgtYoLJ/SvcTThgD/rJ+FDefDEPLYEIOG25fJ368B7FoxRSmISbrv56TLoA0kUkY8SD6Z5NiXNoRn2p54HXzJyuoDEXkZ/R95cGIx+eK3B6xMyaQfJF5WZoTX4UtytL63PgozSMLDeySanydzp9SbiEnahfmkj8fv5FGNzh9FvRARfnQsyahw0kUJkSS6NnFswS3yo7sbWXy5fPRQ9DKG3L1/knzntZ48ULDfKGK7KRURZiOrQDopycWtkCewH/tZtdeHS2gCW1tzxruTFKfXVLZMrFw4MOSZICWCg75DrFmZchGlpxXv5OOa28K2vmO1WgZoZ2MHq5a61VyD04RR/2X4yTUcm33jGP+H0jDhoKUV7w3PlNPOGlYK33dKAv7ZA/jPYTkW9HmPlZXAMbSASUoEOH09YK3ghIIa4lpTiNBfhqLPvLPIjDmCM1mfYY5nTW/Nx4VZ545orilGckI93phbEI2/95xBwZBvMbYm6+A1QJyQiGSxJprbdoZ5fcx6a4umAZwXrMfnhYew7WK80reyUhomeQ99sfVuT6xe+XonXglCRF/ai7MFHlg4nldpDnJlKO82mO8wBVGn8cfpx9B+rx1cR3mikyKLRLkXMK/XLJw3+xYXj0yHmVoENmuLGE98RmLgL/EYuPUf/D6wIaUvSpAdE4Mcc2u0aQgXEEqdIU4KwakwbfT+tGvNMziqCTXEakMWzszohfmBrvjt5lYMLj/7aaBkMzq5MTq5Yd0/W+GhVjeLplDUB7o0oTa8B/cRH6NFfhhCwt+SCbEgDMFhBWjx8TD0oUaYQpELNcRqRNOeo+FhloFA/1AUsLKGTEHoFQRmmMJjdC+8C3sqKRRFoYZYndDqDK+Z7ii4eBjXK9yiseGRhWuHL0HgPgNeXRTdpkWhvBtQQ6xWaKKVxzxMNg3CHt+oekxjUz6iKF/sDTTFpHlD3uKHwlIoyoEOEXWD2x5eq2eg8aFfcDSx3hLZlIs4EUfWHobOjFX4QtHESgrlHYIaYjVEq70X1swzgN/yPYis48d4Kx8hIncvxyGDuVg7qXr3Y6ZQ3nWoIVZLNGHisQYbh8bC2yesQe3wKgzzgXesJzb87CHjxuMUCkUWNI9YzRGLxeBwGpBFk4gh1uQoeFMVCuXdhBpiCoVCUTF0aYJCoVBUDDXEFAqFomKoIW6QCJGVVcUTkdWet0EHCkU5UEPcwBCm/IejizwxYXNEg71f7tugA4WiTKghbmBoG3eCi7Uhitj3DZG3QQcKRZlQQ1ynFCIvMxv5yt6rrFH8TwEUqY+66UChvH00bEMsEeLF0wSkq+VdI0WI950B9272GLz0Ml4o+nhXpaFIfdRNh5ohEbzA04Q0+pQNitrTcA2xMBGBGydj4Ehv3FVDAyF8uANLdwgwdv1q9Ir8Gf87/qz+HoEkA0Xqo2461ARhYgA2TR6AMd53FX7EOYVSXzRcQ6zdDjbtdNGoizPsG7MydUHwCL77+Ri1cze+GToS3x9Yjx6hO3EqQUVmTJH6qJsONUS7nS3a6XLR2bk71K17UChvIN1Z1zDJJ5fnu5BxOxNfPSpdGPorGeI2m5xMq97D0xsiwtSH5Mic3sRp8i7y3/M8VtqwqBcd8v8mC51Hk92Jb29foLw9NNwtzoW38ePAH6G36QS+sZHearEQd1YNxOSwkTh6eDos6c0O3mkKb/+AQT/oYePJuehA78RJUXNUbogLE4Jw4tQV/JeYAwnRQCMDMzh5jMMndu9BEOOPwyeuIjKtEERDGy3tBmHcWCcYM0ZWFLkBI2ZkYNHFlXDWZg4keoQNQ6YhZe45rO2nX3Lwekaqy8lT/ghPzC7WRZOrBS0Oo5NeC5h26om+7l1hosN+WQEszczZV28SG/+EfSUfSfJxLN2sgQU/ecp9Gq266aBY/xAhasMwzHq5BOd+cIa0e1Ao6ox6eMTpB+HlvAxBzQZj/ZkNGNTytZUQXl+MPl8cRn7vVbiwawyMiz+SIHn3eIy8OxF/b/wYTRiJONYHny/XwIo/VesNSxhdJjG6BLcagx3nVqO3nhCpD6/gr/Vrse+JDWb//iu+6FpyoRBF/YXvf7uKdHnRJG4HjF47D+7sgzdrZ4gz4f/tIMwK7oe9V1bAqRLrpHY61LR/SJKwd9xw3Jvoj/UDpb2DQlFzpIZY1QjD1pD+Fhak57JAImBlJYgJf/94YmNqQ770S3u1FkxIBjk21YFMfiUTk8Q9c8nyy1nF71RJqS7OC/1JPisrRvCAeHtYEyvH2eRMiqLrliKSdH4dmf/VTDJ5YA/Sa6oviROxH1VBfuhaMsTGkvCsxpODqZX/vrrpUOP+kXGUTO8+iRx6i2MFlLcLORPU+kSMxKBbeCoxgINr5wrTyBwEB95FoVZHOLkYvk7xKAjFrXumcOxWgOjoDEgkLxCa2wUT3VWzJPGaUl2awt6tQrReuwNGDusGLv8SdvrFKPY8OlEMHmp6YLX3Fuw8+it6RR/GhcfVyGJg/s53Zyo+GmMLrugpYmMr29OmbjrUvH8UhIbggakjuhVEITqDJq9R1B/VG2IJH4GBERA3sYdrjwrTyPxbCAjNBcfKGa6tX683SLKSkJwvwrPbcdB6nxmApBB2nwxXfYCO1UWk0xWuThUfIK8JQzMzGGoWITo8jDEhCsD9AB8NsCp5/JCWEVoYt4KxYVX70yRIPrkN4d1nwsuRB33CR1xctvzcWnXTocb9Q4KspGTki5/h31gtmBqqga9BoVSB6teIM45hRs8F8Nexx5DBnfBemTFJMu/izMm70PPyxYX/OZZ5/lkhsjME0DXUR80D4oWIOr8X1+KrmQ+raYgunqPgVJ1HEbO63OjwHS76TcH7FS4MwisL0GvKMWS7/IB/DkxAi1rYCOF9H/x4wwlLZ3etPE826xpWzA+Fx6aF6PzcB6P7r0P6uIO4uNJJdhBL3XRQpH8UZiNDoAtDfZouQWkYqNxdyLsVgDt5XFh/OgnDB/THR/1LSz/wip4jkzSHg5tdhYdQakFfISMshSA/gw9+Skr1Cj8N2YXVu1aV6mLp7CbjeW1iPI99giyiAYM2baBfm5bPvYuzoZaYNqMKIwwhwncchHj0FHRjvsgxsYK5AQE/Lg45clxiddNBof6hpU+NMKVhUbxSrDIEJGCpC7Gy6EvWhglZGYsolvgMtSSWdjPIqUxWptaU6uJOfrpdQRcp4kSyd/QHhGdmT+aer0VQMT+aXPbzJ3HFUat88jg6oVgsC1HMDjLOsS8ZP30mmT2DKdMnkoF25sTK7XsSIqOK6qfD29Q/KBT5qNYjLnyEwBA+0MIRzh3K+7yS9CAEPxJBu7MrnPRYoTpTqouRA9zsyusipSBsP/z+FUCn00RM6atgUFEUj2Pzp2Pltp8xa/AADOw7FFvuy0nqlfBx2vsmHHadxwGfLdi0lSk+2zDHXR8k9THismS4xOqmw9vUPyiUymANskoQRW8iQ3nmpNusMySHlZWSeXwa6WJqSUZsjSPVzNCqJrnk3MI+pLerW/VK73HE50ER+7fyKdWl68zTJJuVlSLOCCA/9m9P2nf/gvwZXT4Bq67I9P+ODP/6NEkvl8FVRCLWf0qszXuSlcFverzqpoNq+geFUv+o0BCLSMKOz0gH0/Zkwr7UMjnCUjLI2dn2xNKiD1kTKnMOXQvEJDsplkRHR1ezxJO0AvZP5VKqixUZveP1vS+k8vRwX7Lkk26kh+cKcrZkLl73ZAWTnwYMJGvvvNl2OUe+JDZMm4/b+7xCm6uZDnXQP0RJV8iGb6aTJbtDSWb5A1IoKoWzgoF1juuRbESc3YpVG0/jcS5zMeDqwsjUElbGuiiKv4b9m9Ziy7FIZIuZ6bOOPpqbmMPcSFkbVTWgrdcMzZs3r2YxgG6lcZ+yuoiRw09EUmw4Qm764/yxI7j0SAOdJq7A2sWe6GhY9wEkSWoIti2Yj+1hYhhZWKGDrRlKflaExOCj+NPvDG7FZyE1OQNNebbo0k66xKBeOtRV/xDc+B1frz+P8ODHMPQYDnsDlceqKZRi1GOLM4VSH4gzEPsgGY/+WofH43fgm440s4KiHlCXgPLuwDGEhclzRHD7weMDaoQp6gP1iCnvDMLov+EbIITTiMHooOrd8BRKGaghplAoFBVDlyYoFApFxVBDTKFQKCqGGmIKhUJRMdQQUygUioqhhphCoVBUDDXEFAqFolKA/wMxdHA+EvFW5wAAAABJRU5ErkJggg==&quot;&gt;" style="rounded=1;whiteSpace=wrap;html=1;" vertex="1" parent="1">
          <mxGeometry x="660" y="400" width="120" height="60" as="geometry" />
        </mxCell>
        <mxCell id="8PzJGK3AlFGfxufAia_o-14" style="edgeStyle=orthogonalEdgeStyle;rounded=0;orthogonalLoop=1;jettySize=auto;html=1;" edge="1" parent="1" source="8PzJGK3AlFGfxufAia_o-3" target="8PzJGK3AlFGfxufAia_o-3">
          <mxGeometry relative="1" as="geometry" />
        </mxCell>
      </root>
    </mxGraphModel>
  </diagram>
</mxfile>
